<?xml version="1.0" encoding="UTF-8" standalone="no"?>
<!-- Created with Inkscape (http://www.inkscape.org/) -->

<svg
   xmlns:dc="http://purl.org/dc/elements/1.1/"
   xmlns:cc="http://creativecommons.org/ns#"
   xmlns:rdf="http://www.w3.org/1999/02/22-rdf-syntax-ns#"
   xmlns:svg="http://www.w3.org/2000/svg"
   xmlns="http://www.w3.org/2000/svg"
   xmlns:sodipodi="http://sodipodi.sourceforge.net/DTD/sodipodi-0.dtd"
   xmlns:inkscape="http://www.inkscape.org/namespaces/inkscape"
   width="744.09448819"
   height="1052.3622047"
   id="svg2"
   version="1.1"
   inkscape:version="0.48.4 r9939"
   sodipodi:docname="New document 1">
  <defs
     id="defs4">
    <filter
       id="filter4278"
       inkscape:label="Blur"
       style="color-interpolation-filters:sRGB;">
      <feGaussianBlur
         id="feGaussianBlur4280"
         result="blur"
         stdDeviation="14.33 6" />
    </filter>
    <filter
       id="filter4219"
       inkscape:label="Blur"
       style="color-interpolation-filters:sRGB;">
      <feGaussianBlur
         id="feGaussianBlur4221"
         result="blur"
         stdDeviation="7.56 6" />
    </filter>
  </defs>
  <sodipodi:namedview
     id="base"
     pagecolor="#ffffff"
     bordercolor="#666666"
     borderopacity="1.0"
     inkscape:pageopacity="0.0"
     inkscape:pageshadow="2"
     inkscape:zoom="0.35"
     inkscape:cx="375"
     inkscape:cy="748.57143"
     inkscape:document-units="px"
     inkscape:current-layer="layer1-9"
     showgrid="false"
     inkscape:window-width="475"
     inkscape:window-height="363"
     inkscape:window-x="872"
     inkscape:window-y="241"
     inkscape:window-maximized="0" />
  <metadata
     id="metadata7">
    <rdf:RDF>
      <cc:Work
         rdf:about="">
        <dc:format>image/svg+xml</dc:format>
        <dc:type
           rdf:resource="http://purl.org/dc/dcmitype/StillImage" />
        <dc:title></dc:title>
      </cc:Work>
    </rdf:RDF>
  </metadata>
  <g
     inkscape:label="Layer 1"
     inkscape:groupmode="layer"
     id="layer1">
    <g
       id="layer1-9"
       inkscape:label="Layer 1"
       transform="translate(45.71427,-193.44511)">
      <path
         inkscape:connector-curvature="0"
         id="path4201"
         d="m 169.07052,436.76495 c -0.57284,0.0177 -1.26781,0.0611 -2.10157,0.13281 -13.12045,2.5091 -11.37147,9.79021 -8.71289,14.88867 3.18666,6.1112 16.70902,7.75748 26.30664,7.09961 -2.70147,7.75847 -3.03459,16.76723 -0.14648,22.98828 5.54274,11.93917 28.97916,4.6299 37.19336,13.26758 29.93724,8.51605 49.54624,-0.71116 100.41992,4.67578 58.77791,2.82362 137.63449,34.66022 169.97852,25.18945 37.88524,-11.0933 -105.72461,-35.29492 -105.72461,-35.29492 -82.44195,-25.78897 -125.35987,-58.16871 -187.43946,-46.29687 -4.65523,0.89024 -8.54373,4.43392 -11.37304,9.18164 -7.27953,-0.89103 -17.6084,0.0374 -22.9961,-5.01563 -5.82478,-5.463 13.18824,-11.0814 4.59571,-10.8164 z"
         style="opacity:0.40499998;fill:#000000;fill-opacity:1;fill-rule:evenodd;stroke:none;filter:url(#filter4278)" />
      <path
         sodipodi:nodetypes="cassssscc"
         inkscape:connector-curvature="0"
         id="path4294"
         d="m 201.70265,483.36359 c 1.93102,2.67966 0.84671,9.75218 4.2461,9.35026 2.85872,-0.33799 1.32077,-4.42009 1.6386,-8.47902 0.19336,-2.46934 6.96031,9.2495 12.10941,11.13593 3.57248,1.30881 3.10783,-1.77129 2.42662,-2.46129 -7.56486,-7.66251 0.61907,0.99726 2.01446,0.98041 5.85617,-0.0707 -1.89557,-5.24992 -1.39049,-6.00753 0.50508,-0.75762 5.18277,6.04765 8.30992,3.2666 -1.76789,-4.23281 -13.64469,-11.47072 -15.25318,-11.4012"
         style="fill:#945661;fill-opacity:1;fill-rule:evenodd;stroke:#a97e85;stroke-width:1px;stroke-linecap:butt;stroke-linejoin:miter;stroke-opacity:1" />
      <path
         style="fill:#89858c;fill-opacity:1;fill-rule:evenodd;stroke:#646870;stroke-width:1px;stroke-linecap:butt;stroke-linejoin:miter;stroke-opacity:1"
         d="m 195.38748,473.58441 c 1.23891,3.71673 4.15815,10.29914 10.80107,12.76628 1.92903,0.71644 1.57772,-3.08677 3.25019,-1.073 2.79796,3.36894 3.64873,7.24972 5.89925,3.71154 2.30318,-3.62095 12.1969,-2.2164 10.97328,-5.29979 -6.21559,-8.33227 -7.85694,-0.96757 -9.58431,-13.26176"
         id="path4292"
         inkscape:connector-curvature="0"
         sodipodi:nodetypes="cssscc" />
      <path
         style="fill:#945661;fill-opacity:1;fill-rule:evenodd;stroke:#a97e85;stroke-width:1px;stroke-linecap:butt;stroke-linejoin:miter;stroke-opacity:1"
         d="m 358.65511,504.19799 c 3.31997,1.66951 6.22189,2.89122 10.81209,2.27919 0,0 2.84006,0.98187 4.29025,1.36997 0.99448,0.26615 3.01803,0.65559 3.01803,0.65559 0,0 3.30467,0.79197 5.32497,1.04451 2.02031,0.25254 2.75363,-0.7666 3.25871,-1.52421 0.50508,-0.75762 7.78427,1.15175 7.78427,1.15175 2.12031,-1.17795 1.95793,-1.63887 3.59943,-2.27021 1.6415,-0.63135 1.66951,-3.65547 -0.85587,-3.65547 -2.52539,0 -9.36712,-1.27801 -11.76623,-2.91951 -2.39911,-1.64149 -2.65165,-1.76776 -5.42957,-1.51522 -2.77792,0.25253 -3.24973,-0.59699 -4.63869,-0.72326 -1.38896,-0.12627 -4.79823,-3.59944 -4.79823,-3.59944"
         id="path4290"
         inkscape:connector-curvature="0"
         sodipodi:nodetypes="csacssssssssc" />
      <path
         sodipodi:nodetypes="csacssssssssc"
         inkscape:connector-curvature="0"
         id="path4288"
         d="m 384.99439,495.89442 c 3.40926,2.65165 3.36475,3.51622 7.95495,2.90419 0,0 4.47999,1.76215 6.43311,0.83426 0.65331,-0.31038 1.14303,-1.84441 1.14303,-1.84441 0,0 3.66181,2.39911 5.68211,2.65165 2.02031,0.25254 3.91434,0.12626 4.41942,-0.63135 0.50508,-0.75762 3.40927,0.88389 3.40927,0.88389 2.12031,-1.17795 -0.63135,-3.15673 1.01015,-3.78807 1.6415,-0.63135 2.65165,-3.03047 0.12627,-3.03047 -2.52539,0 -4.54569,-1.01015 -6.9448,-2.65165 -2.39911,-1.64149 -2.65165,-1.76776 -5.42957,-1.51522 -2.77792,0.25253 -5.3033,1.01015 -6.69226,0.88388 -1.38896,-0.12627 -4.79823,-1.01015 -4.79823,-1.01015"
         style="fill:#945661;fill-opacity:1;fill-rule:evenodd;stroke:#ac838a;stroke-width:1px;stroke-linecap:butt;stroke-linejoin:miter;stroke-opacity:1" />
      <path
         sodipodi:nodetypes="csssssc"
         inkscape:connector-curvature="0"
         id="path4286"
         d="m 363.71991,476.67987 c 1.23891,3.71673 5.92591,9.16271 12.56883,11.62985 1.92903,0.71644 4.57422,4.51808 6.28066,6.50315 2.24851,2.61563 4.42692,2.23459 7.41448,-0.70787 1.23404,-1.21543 6.85393,-2.90253 5.66998,-3.40576 -3.45985,-1.47057 -8.10981,-5.39702 -10.5645,-10.87608 -4.08695,-9.12239 -3.69177,-21.57858 -3.69177,-21.57858"
         style="fill:#89858c;fill-opacity:1;fill-rule:evenodd;stroke:#646870;stroke-width:1px;stroke-linecap:butt;stroke-linejoin:miter;stroke-opacity:1" />
      <path
         sodipodi:nodetypes="cc"
         inkscape:connector-curvature="0"
         id="path4199"
         d="m 471.10988,373.41342 c -25.63261,0.25254 -39.90103,-17.80393 -49.24494,-35.60787"
         style="fill:none;stroke:#747275;stroke-width:1px;stroke-linecap:round;stroke-linejoin:miter;stroke-opacity:1" />
      <path
         sodipodi:nodetypes="cc"
         inkscape:connector-curvature="0"
         id="path4197"
         d="m 471.10988,373.41342 c 1.6415,-12.37436 -2.90419,-26.64277 2.39911,-42.67894"
         style="fill:none;stroke:#747275;stroke-width:1px;stroke-linecap:round;stroke-linejoin:miter;stroke-opacity:1" />
      <path
         sodipodi:nodetypes="cc"
         inkscape:connector-curvature="0"
         id="path4195"
         d="m 471.10988,373.41342 c 3.15673,-15.15228 26.5165,-35.60787 46.84582,-39.1434"
         style="fill:none;stroke:#747275;stroke-width:1px;stroke-linecap:round;stroke-linejoin:miter;stroke-opacity:1" />
      <path
         style="fill:none;stroke:#747275;stroke-width:1px;stroke-linecap:round;stroke-linejoin:miter;stroke-opacity:1"
         d="m 473.50899,372.90834 c 15.90991,6.1872 29.04188,2.77792 49.11867,13.63707"
         id="path4193"
         inkscape:connector-curvature="0"
         sodipodi:nodetypes="cc" />
      <path
         style="fill:none;stroke:#747275;stroke-width:1px;stroke-linecap:round;stroke-linejoin:miter;stroke-opacity:1"
         d="m 465.80658,384.39882 c -0.12626,15.65738 0.3788,32.57743 13.00571,48.61361"
         id="path4191"
         inkscape:connector-curvature="0"
         sodipodi:nodetypes="cc" />
      <path
         style="fill:#945661;fill-opacity:1;fill-rule:evenodd;stroke:#ac838a;stroke-width:1px;stroke-linecap:butt;stroke-linejoin:miter;stroke-opacity:1"
         d="m 194.24271,428.56111 c -15.10121,4.77689 -28.75675,0.53404 -34.01927,3.81564 -1.80374,1.12478 2.3998,5.53789 4.91769,6.68112 7.49365,3.40243 16.33245,0.25673 24.60294,-2.068"
         id="path4171"
         inkscape:connector-curvature="0"
         sodipodi:nodetypes="csac" />
      <path
         sodipodi:nodetypes="casac"
         inkscape:connector-curvature="0"
         id="path4169"
         d="m 186.60343,441.31429 c -11.25,-5.89285 -19.50471,-14.04749 -27.39014,-8.62187 -1.75121,1.20494 -1.77737,4.75871 -0.38561,6.36545 3.04501,3.51537 9.06762,5.53229 13.87102,7.77233 4.26214,1.98763 11.48241,6.96429 13.19416,4.99629"
         style="fill:#bf9fa0;fill-opacity:1;fill-rule:evenodd;stroke:#ab8189;stroke-width:1px;stroke-linecap:butt;stroke-linejoin:miter;stroke-opacity:1" />
      <path
         style="fill:#945661;fill-opacity:1;fill-rule:evenodd;stroke:#ac838a;stroke-width:1px;stroke-linecap:butt;stroke-linejoin:miter;stroke-opacity:1"
         d="m 407.51358,356.80485 c -3.69467,-3.16373 -4.60902,-6.61466 -9.67826,-6.39034 -3.66968,0.16238 0.11546,6.03967 -0.74864,13.58989 8.01491,17.53618 19.14488,-0.14874 10.4269,-7.19955 z"
         id="path4167"
         inkscape:connector-curvature="0"
         sodipodi:nodetypes="cscc" />
      <path
         sodipodi:nodetypes="scczssssssssssscssscs"
         inkscape:connector-curvature="0"
         id="path4147"
         d="m 428.84604,357.16672 c -17.39727,0.51115 -37.88352,12.77693 -54.54691,16.21851 -27.41249,10.44152 -52.21428,-10.66437 -79.61348,-11.8429 -13.29923,-1.97664 -53.49467,-5.04385 -70.5623,6.96356 -17.06762,12.00741 -43.08946,44.39689 -40.34975,71.79695 0.77775,7.77832 -4.23437,21.77135 3.97983,30.40903 12.59425,13.24354 18.87232,-2.1758 40.60233,13.10309 6.31509,4.44029 40.8599,5.75268 71.6031,1.21656 7.75535,-1.14429 20.14759,-7.17892 43.3743,6.68015 6.492,3.87369 14.36721,16.61457 19.8148,12.0843 2.5081,-2.08577 5.11981,-3.96457 7.37451,-7.74605 1.44435,-2.42242 -8.54782,-5.70583 -6.15084,-11.54586 3.341,-8.14004 22.82724,-26.08338 33.99186,-36.69394 14.22114,-13.51539 32.06465,-30.32195 48.87655,-33.114 7.30406,-1.21302 21.38163,-10.66886 24.72154,-15.59075 0.79462,-1.171 2.79518,-6.05906 0.66448,-6.78127 -10.99446,2.8739 -18.12675,9.47095 -17.30791,8.61915 4.10614,-4.27143 18.88245,-9.63095 19.45395,-9.88282 0,0 11.91035,-4.39852 12.47091,-9.29912 1.17679,-10.28776 0.25384,-22.7458 -2.42844,-23.58114 -21.8452,-2.56253 -42.99073,-1.39475 -55.96853,-1.01345 z"
         style="fill:#323232;fill-opacity:1;fill-rule:evenodd;stroke:#000000;stroke-width:1px;stroke-linecap:butt;stroke-linejoin:miter;stroke-opacity:1" />
      <path
         style="fill:#dcdddc;fill-opacity:1;fill-rule:evenodd;stroke:#000000;stroke-width:1px;stroke-linecap:butt;stroke-linejoin:miter;stroke-opacity:1"
         d="m 312.42728,377.42584 c -34.39595,-7.86619 -11.55563,-0.56284 -38.95483,-1.74137 -13.29923,-1.97664 -26.97817,-10.09462 -44.0458,1.91279 -4.0221,2.82963 -13.84477,-2.30021 -18.36781,2.46118 -14.67031,15.44338 -29.37932,39.30135 -27.28524,60.2444 0.77775,7.77832 -4.23437,21.77135 3.97983,30.40903 12.59425,13.24354 18.87232,-2.1758 40.60233,13.10309 6.31509,4.44029 40.8599,5.75268 71.6031,1.21656 7.75535,-1.14429 20.14759,-7.17892 43.3743,6.68015 6.492,3.87369 14.36721,16.61457 19.8148,12.0843 2.5081,-2.08577 5.11981,-3.96457 7.37451,-7.74605 1.44435,-2.42242 -8.54782,-5.70583 -6.15084,-11.54586 0,0 -15.10083,-2.67352 -29.39521,-8.40967 -8.50729,-3.41386 -4.46287,-14.69399 -15.26814,-28.56831 -7.88186,-10.12056 7.00478,-34.11821 5.94385,-52.30589 -1.42519,-24.43233 -8.3835,-16.68716 -13.22485,-17.79435 z"
         id="path4153"
         inkscape:connector-curvature="0"
         sodipodi:nodetypes="scssssssssscssss" />
      <path
         sodipodi:nodetypes="sssssss"
         inkscape:connector-curvature="0"
         id="path4159"
         d="m 394.28152,391.87695 c 1.42359,-1.03883 2.00356,-3.53028 2.41323,-5.49723 1.19959,-5.75959 1.09526,-13.28989 -2.43943,-16.31662 -3.69467,-3.16373 -8.64963,-7.37228 -13.71887,-8.41065 -3.59855,-0.73711 -13.39533,1.74653 -13.62808,9.04421 -0.58458,18.32963 20.74393,16.1094 22.30629,19.58868 0.84519,1.88216 3.51817,2.72173 5.06686,1.59161 z"
         style="fill:#945661;fill-opacity:1;fill-rule:evenodd;stroke:#ac838a;stroke-width:1px;stroke-linecap:butt;stroke-linejoin:miter;stroke-opacity:1" />
      <path
         d="m 438.05882,371.13872 c -1.85092,1.46985 -4.85186,1.46985 -6.70278,0 -1.85092,-1.46985 -1.85092,-3.85294 0,-5.32279 1.85092,-1.46985 4.85186,-1.46985 6.70278,0 0.88884,0.70585 1.38819,1.66318 1.38819,2.6614"
         sodipodi:open="true"
         sodipodi:end="6.2831853"
         sodipodi:start="0.78539816"
         sodipodi:ry="3.7637815"
         sodipodi:rx="4.7395773"
         sodipodi:cy="368.47733"
         sodipodi:cx="434.70743"
         sodipodi:type="arc"
         id="path4161"
         style="fill:#000000;fill-opacity:1;stroke:none" />
      <path
         d="m 434.86026,368.46009 c -0.66249,0.59838 -1.73661,0.59838 -2.39911,0 -0.6625,-0.59839 -0.6625,-1.56856 0,-2.16694 0.6625,-0.59839 1.73662,-0.59839 2.39911,0 0.31814,0.28735 0.49687,0.67709 0.49687,1.08347"
         sodipodi:open="true"
         sodipodi:end="6.2831853"
         sodipodi:start="0.78539816"
         sodipodi:ry="1.532258"
         sodipodi:rx="1.6964285"
         sodipodi:cy="367.37662"
         sodipodi:cx="433.66071"
         sodipodi:type="arc"
         id="path4163"
         style="fill:#ffffff;fill-opacity:1;stroke:none" />
      <path
         style="fill:#2e2521;fill-opacity:1;fill-rule:evenodd;stroke:#ac838a;stroke-width:1px;stroke-linecap:butt;stroke-linejoin:miter;stroke-opacity:1"
         d="m 396.44221,386.50599 c 1.19959,-5.75959 -0.68845,-8.50286 -2.12376,-9.49809 -1.29208,-0.89592 -3.121,-3.46751 -6.45839,-0.89764 -3.48075,2.68025 2.64084,4.14564 3.67078,7.15017 -0.0619,2.41325 1.7585,10.7367 4.91137,3.24556 z"
         id="path4165"
         inkscape:connector-curvature="0"
         sodipodi:nodetypes="csscc" />
      <path
         sodipodi:nodetypes="sssss"
         inkscape:connector-curvature="0"
         id="path4179"
         d="m 487.87072,361.98341 c 0.22028,-1.42077 -1.32351,-4.38008 -2.70034,-3.47293 -0.64169,0.42279 0.42353,4.53031 -0.99578,5.29688 -3.93754,2.12666 -1.6405,6.98083 0.59065,6.71489 5.68148,-0.67719 2.71091,-5.99403 3.10547,-8.53884 z"
         style="fill:#945661;fill-opacity:1;fill-rule:evenodd;stroke:#ac838a;stroke-width:1px;stroke-linecap:butt;stroke-linejoin:miter;stroke-opacity:1" />
      <path
         sodipodi:nodetypes="cc"
         inkscape:connector-curvature="0"
         id="path4181"
         d="m 466.94301,380.35822 c 4.79823,14.39468 15.53109,33.96638 21.08693,41.54253"
         style="fill:none;stroke:#747275;stroke-width:1px;stroke-linecap:round;stroke-linejoin:miter;stroke-opacity:1" />
      <path
         style="fill:none;stroke:#747275;stroke-width:1px;stroke-linecap:round;stroke-linejoin:miter;stroke-opacity:1"
         d="m 461.51344,387.8081 c -8.71256,11.36422 -6.81853,40.53237 -0.50508,62.12439"
         id="path4183"
         inkscape:connector-curvature="0"
         sodipodi:nodetypes="cc" />
      <path
         sodipodi:nodetypes="cc"
         inkscape:connector-curvature="0"
         id="path4185"
         d="m 472.12004,381.99972 c 9.72272,9.59646 10.85913,11.99557 15.78363,20.32933"
         style="fill:none;stroke:#747275;stroke-width:1px;stroke-linecap:round;stroke-linejoin:miter;stroke-opacity:1" />
      <path
         style="fill:none;stroke:#747275;stroke-width:1px;stroke-linecap:round;stroke-linejoin:miter;stroke-opacity:1"
         d="m 471.10988,373.41342 c 7.70242,-5.93464 37.37564,-18.30901 56.44227,-19.19289"
         id="path4187"
         inkscape:connector-curvature="0"
         sodipodi:nodetypes="cc" />
      <path
         sodipodi:nodetypes="cc"
         inkscape:connector-curvature="0"
         id="path4189"
         d="m 472.12003,378.21164 c 16.41499,11.4905 27.02158,22.34963 39.64849,38.38581"
         style="fill:none;stroke:#747275;stroke-width:1px;stroke-linecap:round;stroke-linejoin:miter;stroke-opacity:1" />
      <path
         inkscape:connector-curvature="0"
         id="path4296"
         d="m 263.50908,406.5364 c -10.04267,-3.7554 -20.40613,2.51928 -27.63658,10.25957 -6.22904,6.47176 -11.63718,13.9191 -17.91336,20.32697 -3.64341,4.73234 -3.64489,12.74317 0.82631,16.82259 3.8371,4.51491 9.84694,4.26503 13.92304,8.26254 14.90321,10.33787 33.00891,11.18626 49.93225,9.97532 7.31512,-0.0379 15.78738,-0.20368 20.9651,-7.13228 6.11837,-8.21835 6.91368,-19.79406 6.25443,-30.13309 0.18241,-6.15117 3.50648,-11.59584 3.4316,-17.90707 0.48978,-7.27314 -0.28399,-15.26839 -4.23664,-21.22367 -4.23654,-5.45581 -11.12351,-3.29344 -15.77319,0.15858 -9.12857,5.97087 -19.58666,8.27216 -29.77296,10.59054 z"
         style="fill:#000000;fill-opacity:0.06268658;fill-rule:evenodd;stroke:none" />
    </g>
  </g>
</svg>
