<?xml version="1.0" encoding="UTF-8" standalone="no"?>
<!-- Created with Inkscape (http://www.inkscape.org/) -->

<svg
   xmlns:dc="http://purl.org/dc/elements/1.1/"
   xmlns:cc="http://creativecommons.org/ns#"
   xmlns:rdf="http://www.w3.org/1999/02/22-rdf-syntax-ns#"
   xmlns:svg="http://www.w3.org/2000/svg"
   xmlns="http://www.w3.org/2000/svg"
   xmlns:sodipodi="http://sodipodi.sourceforge.net/DTD/sodipodi-0.dtd"
   xmlns:inkscape="http://www.inkscape.org/namespaces/inkscape"
   width="128.72913mm"
   height="100.96209mm"
   viewBox="0 0 456.12682 357.73969"
   id="svg5114"
   version="1.1"
   inkscape:version="0.91 r13725"
   sodipodi:docname="long-evans-sleep-incomplete.svg">
  <defs
     id="defs5116">
    <filter
       inkscape:collect="always"
       style="color-interpolation-filters:sRGB"
       id="filter5063"
       x="-0.11376639"
       width="1.2275327"
       y="-0.23076478"
       height="1.4615296">
      <feGaussianBlur
         inkscape:collect="always"
         stdDeviation="20.953722"
         id="feGaussianBlur5065" />
    </filter>
  </defs>
  <sodipodi:namedview
     id="base"
     pagecolor="#ffffff"
     bordercolor="#666666"
     borderopacity="1.0"
     inkscape:pageopacity="0.0"
     inkscape:pageshadow="2"
     inkscape:zoom="0.35"
     inkscape:cx="-104.07944"
     inkscape:cy="-52.558729"
     inkscape:document-units="px"
     inkscape:current-layer="layer1"
     showgrid="false"
     inkscape:window-width="1867"
     inkscape:window-height="1056"
     inkscape:window-x="53"
     inkscape:window-y="24"
     inkscape:window-maximized="1"
     fit-margin-top="0"
     fit-margin-left="0"
     fit-margin-right="0"
     fit-margin-bottom="0" />
  <metadata
     id="metadata5119">
    <rdf:RDF>
      <cc:Work
         rdf:about="">
        <dc:format>image/svg+xml</dc:format>
        <dc:type
           rdf:resource="http://purl.org/dc/dcmitype/StillImage" />
        <dc:title></dc:title>
      </cc:Work>
    </rdf:RDF>
  </metadata>
  <g
     inkscape:label="Layer 1"
     inkscape:groupmode="layer"
     id="layer1"
     transform="translate(-260.50801,-122.06379)">
    <ellipse
       style="opacity:1;fill:#333333;fill-opacity:1;stroke:none;stroke-width:1;stroke-linecap:round;stroke-linejoin:round;stroke-miterlimit:4;stroke-dasharray:3, 3;stroke-dashoffset:0;stroke-opacity:1;filter:url(#filter5063)"
       id="path5009"
       cx="1542.7517"
       cy="1675.2797"
       rx="221.01842"
       ry="108.96146"
       transform="matrix(0.84060908,0,0,0.84060908,-808.27966,-1073.6569)" />
    <path
       style="fill:#6b6457;fill-opacity:1;fill-rule:evenodd;stroke:none;stroke-width:1px;stroke-linecap:butt;stroke-linejoin:miter;stroke-opacity:1"
       d="m 440.70428,186.20659 c -25.9809,15.7946 -14.7829,52.5349 -30.6712,75.5754 -12.6692,31.6196 -23.1506,66.69 -17.3127,100.6705 12.8943,33.6007 45.5858,-2.3662 69.48,3.5714 30.322,7.8948 52.425,-15.6534 58.9912,-43.3722 13.0915,-30.5784 14.3785,-67.9949 -3.5994,-96.9641 -4.7945,-20.8037 10.9678,-57.5847 -21.8306,-61.2725 -19.6338,1.4896 -37.3967,14.0677 -55.0573,21.7915 z"
       id="path4472-5"
       inkscape:connector-curvature="0" />
    <path
       sodipodi:nodetypes="ccczcccscccccc"
       inkscape:connector-curvature="0"
       id="path4825"
       d="m 344.08708,301.51959 c 11.6142,38.5131 74.7618,76.7502 74.3898,10.7814 9.6589,-28.2722 3.1572,-106.659 29.4383,-111.2169 8.5256,89.9652 39.2551,-62.4837 61.5858,-3.1832 22.3307,59.3006 -21.1467,129.7225 33.1571,139.9247 7.0517,-15.2836 42.1348,-89.6719 42.2446,-44.9123 -13.4268,43.0486 6.7252,119.7088 53.2731,94.0321 60.2113,60.8217 59.2042,-80.0954 47.682,-122.3096 -10.9498,-40.117 -36.0872,-93.539 -86.252,-113.7236 -36.7702,-19.8323 -117.333,-24.0612 -157.4519,1.5401 -46.2733,10.5626 -61.2834,43.8615 -107.6754,53.8511 -31.3376,9.9455 -29.1969,44.1117 13.3189,31.5287 26.1316,-9.7357 100.1178,-36.748 21.5918,32.8631 -17.0765,4.8183 -20.9492,16.7227 -25.3021,30.8244 z"
       style="fill:#f2eee8;fill-opacity:1;fill-rule:evenodd;stroke:#baae98;stroke-width:1px;stroke-linecap:butt;stroke-linejoin:miter;stroke-opacity:1" />
    <path
       style="fill:#775f51;fill-opacity:1;fill-rule:evenodd;stroke:#413f3c;stroke-width:1px;stroke-linecap:butt;stroke-linejoin:miter;stroke-opacity:1"
       d="m 486.69918,375.07799 c 4.2959,8.0345 0.8449,22.8158 -11.5314,20.0821 -15.8339,1.0639 -30.9357,-7.5297 -46.7626,-4.1694 -6.6815,-0.1349 -20.5503,11.3796 -7.34,12.874 15.8006,3.1507 30.4699,10.5945 46.6297,12.1186 8.261,0.4139 16.5521,2.2097 24.7431,1.1373 7.1532,-3.6599 18.8021,1.4572 21.8517,-8.2898 0.3215,-8.723 8.0813,-15.8717 6.4637,-24.6457 -5.553,-4.3313 -15.1559,-3.4292 -22.2058,-6.9714 -4.584,-1.0999 -7.1679,-2.5547 -11.8484,-2.1357 z"
       id="path4514-5"
       inkscape:connector-curvature="0"
       sodipodi:nodetypes="cccccccccc" />
    <path
       style="fill:#938263;fill-opacity:1;fill-rule:evenodd;stroke:none;stroke-width:1px;stroke-linecap:butt;stroke-linejoin:miter;stroke-opacity:1"
       d="m 293.57948,252.52719 c 3.7764,21.4833 12.7357,39.5034 7.8275,60.5663 46.5871,31.9844 34.1743,17.4401 61.5652,25.1155 7.5013,16.5387 14.6067,48.4753 28.1924,61.5746 15.9022,-1.6282 15.7618,-17.9937 21.6298,-27.3658 14.643,-28.8476 28.5928,-56.554 36.0983,-88.0261 1.9493,-21.2785 24.0258,-2.4967 19.5679,10.8754 -5.7282,15.0224 -11.3551,31.6299 -4.8088,47.6807 4.5926,17.1067 18.0627,24.4017 25.9361,39.3767 0.7259,19.2681 14.7211,37.128 29.1764,8.1449 19.6748,1.9507 24.5066,-19.7319 37.3667,-13.1156 17.9732,6.6613 23.3998,31.253 44.05,30.9555 14.8716,0.7088 41.6971,-6.9462 36.2834,-23.5613 -7.2758,-15.7972 -25.9155,-23.0475 -33.2812,-39.4491 -11.1569,-16.3876 -13.8512,-36.2836 -20.5325,-54.4624 -11.5798,-27.0462 -36.3445,-45.1461 -61.425,-58.6622 -27.0107,-20.0596 -55.0627,-38.6527 -82.6224,-57.9372 -17.954,-8.402 -34.3171,6.9789 -45.874,18.9553 -11.9138,13.9483 -29.0554,20.5199 -45.0119,28.4649 -18.7896,8.8253 -38.3923,16.9726 -54.1379,30.8699 z"
       id="path4696-2"
       inkscape:connector-curvature="0"
       sodipodi:nodetypes="cccccccccccccccccccc" />
    <path
       style="fill:#a8997d;fill-opacity:1;fill-rule:evenodd;stroke:none;stroke-width:1px;stroke-linecap:butt;stroke-linejoin:miter;stroke-opacity:1"
       d="m 414.79768,347.98659 c 11.2626,-20.6685 27.9508,-63.9786 46.3309,-63.1167 -2.3366,30.0053 5.7085,66.7108 33.2052,83.0482 37.7568,19.2578 44.4082,-28.6351 46.0026,-55.0741 8.8874,-34.0602 4.1315,-71.5528 -17.3946,-100.0682 -18.458,-20.2764 -37.0332,-46.5677 -63.8637,-53.3837 -43.9032,4.3015 -34.4049,60.5878 -49.5124,90.8786 -3.099,31.1012 -19.4115,72.689 5.232,97.7159 l 0,0 z"
       id="path4687-0"
       inkscape:connector-curvature="0" />
    <path
       style="fill:#baae98;fill-opacity:1;fill-rule:evenodd;stroke:none;stroke-width:1px;stroke-linecap:butt;stroke-linejoin:miter;stroke-opacity:1"
       d="m 328.31438,226.27929 c -32.6654,25.1878 1.2481,63.1228 -2.0932,93.3753 1.6237,37.2923 29.6697,-14.5515 41.5438,12.5352 4.2735,18.9627 35.1907,72.4597 42.8925,33.6403 13.7702,-33.5571 28.2267,-67.7499 27.4726,-104.732 1.3092,-16.7462 -0.8109,-37.2369 21.0442,-7.0915 13.6485,-10.0606 38.6005,-71.7532 35.5552,-29.6721 19.8156,37.562 -21.5113,68.6492 -5.3936,102.917 2.6971,30.0703 32.7496,56.1153 58.4575,30.8673 24.1652,-3.4621 -2.994,10.9614 17.4394,15.2223 26.3841,17.0952 44.3467,42.6225 77.8771,31.52 44.4016,6.2254 17.1355,-51.7114 5.5825,-72.5719 -16.8822,-27.0625 -15.2785,-61.6072 -34.3868,-87.8784 -18.7638,-26.1209 -23.4814,-76.4723 -64.4154,-74.3814 -28.848,2.8708 -59.6342,-3.5246 -86.6669,7.6846 -41.2498,15.0223 -81.3012,37.7365 -126.7073,35.4532 -8.2319,-0.9344 -21.2024,5.7591 -8.2016,13.1121 z"
       id="path4681-2"
       inkscape:connector-curvature="0"
       sodipodi:nodetypes="ccccccccccccccccc" />
    <path
       style="fill:#e9e2d6;fill-opacity:1;fill-rule:evenodd;stroke:none;stroke-width:1px;stroke-linecap:butt;stroke-linejoin:miter;stroke-opacity:1"
       d="m 344.08708,301.51959 c 11.6142,38.5131 74.7618,76.7502 74.3898,10.7814 9.6589,-28.2722 3.1572,-106.659 29.4383,-111.2169 8.5256,89.9652 39.2551,-62.4837 61.5858,-3.1832 22.3307,59.3006 -21.1467,129.7225 33.1571,139.9247 7.0517,-15.2836 42.1348,-89.6719 42.2446,-44.9123 -13.4268,43.0486 6.7252,119.7088 53.2731,94.0321 60.2113,60.8217 48.1749,-81.2978 28.4899,-116.1186 -21.1474,-45.0479 -49.3759,-90.5315 -101.7295,-101.9607 -36.7702,-19.8323 -82.6634,-42.0151 -122.7823,-16.4138 -46.2733,10.5626 -54.4733,48.5047 -100.8653,58.4943 -31.3376,9.9455 -45.2935,43.1831 -2.7777,30.6001 26.1316,-9.7357 109.4043,-40.4626 30.8783,29.1485 -17.0765,4.8183 -20.9492,16.7227 -25.3021,30.8244 z"
       id="path4674-3"
       inkscape:connector-curvature="0"
       sodipodi:nodetypes="ccczcccccccccc" />
    <path
       style="fill:#efeae2;fill-opacity:1;fill-rule:evenodd;stroke:none;stroke-width:1px;stroke-linecap:butt;stroke-linejoin:miter;stroke-opacity:1"
       d="m 529.98008,277.77949 c -7.7973,20.1693 16.4469,42.0581 27.5607,16.1678 8.5745,-17.1827 27.8789,-38.2601 48.3419,-24.9209 13.8916,11.3126 45.0298,12.2734 39.7959,36.5395 -2.293,20.6581 4.6154,42.9936 -24.1256,45.3223 -15.9238,20.3449 21.5414,25.5656 35.7006,22.3741 11.5367,-11.0198 8.944,-43.0117 8.9468,-62.2408 -4.2502,-25.1529 -15.2899,-50.1133 -36.5573,-65.228 -14.8825,-20.4729 -40.7693,-24.2938 -57.6215,-41.6338 -8.5744,-14.1824 -44.3961,-25.2722 -35.9101,-0.3856 -1.2516,25.2184 -1.1843,50.3836 -6.1314,74.0054 z"
       id="path4714-7"
       inkscape:connector-curvature="0"
       sodipodi:nodetypes="ccccccccccc" />
    <path
       style="fill:#cbad9d;fill-opacity:1;fill-rule:evenodd;stroke:#a57f66;stroke-width:1px;stroke-linecap:butt;stroke-linejoin:miter;stroke-opacity:1"
       d="m 286.26788,237.24279 c -52.7214,130.2322 7.6704,201.9614 76.5543,222.1502 91.7871,26.9013 219.3341,42.6858 300.101,-62.6123 9.8087,-12.7879 -23.7282,-31.0327 -35.8311,-15.4928 -74.8888,96.1561 -202.5863,74.7793 -268.4809,46.1325 -67.6308,-29.4015 -88.4345,-77.5079 -63.844,-186.1539 4.3034,-19.0136 -1.58,-21.1156 -8.4993,-4.0237 z"
       id="path4346-2"
       inkscape:connector-curvature="0"
       sodipodi:nodetypes="sssssss" />
    <path
       style="fill:#323232;fill-opacity:1;fill-rule:evenodd;stroke:none;stroke-width:1px;stroke-linecap:butt;stroke-linejoin:miter;stroke-opacity:1"
       d="m 413.42668,372.94449 c 1.3569,-6.3141 12.9449,-17.6004 19.138,-32.2219 8.1306,-19.1961 5.3616,-42.328 4.7992,-56.4791 -15.4634,-37.4144 -14.8454,-92.8481 11.2449,-110.9386 5.4012,-3.7451 32.9277,7.6699 38.8171,4.2117 17.246,-10.1263 25.9024,-31.1562 68.1787,-28.0433 31.4265,2.3139 65.884,30.0314 76.3684,24.1056 10.6729,-6.0323 -79.4637,-68.3432 -143.6995,-47.129 -83.8391,12.879 -164.9054,59.2575 -184.4623,97.6599 -29.8017,35.397 -17.8564,88.5862 6.9041,119.8962 10.2358,12.9434 25.6106,21.5053 35.0325,32.4725 14.049,16.3532 27.8867,37.0803 45.6654,30.9775 11.5534,-3.9658 19.472,-22.0104 22.0135,-34.5115 z"
       id="path4461-7"
       inkscape:connector-curvature="0"
       sodipodi:nodetypes="cscssssccsssc" />
    <path
       style="fill:#262626;fill-opacity:1;fill-rule:evenodd;stroke:none;stroke-width:1px;stroke-linecap:butt;stroke-linejoin:miter;stroke-opacity:1"
       d="m 349.02428,352.94709 c 12.5115,-8.2641 20.2269,3.385 25.1545,11.4902 3.5637,6.5853 4.3397,14.4369 7.8802,21.0732 5.388,6.8042 9.4575,20.2941 1.6329,21.0262 -7.6322,2.7409 -24.7227,-12.7842 -26.8539,-20.4371 -1.9747,-6.5983 -7.7204,-8.9431 -11.2068,-14.7606 -6.1713,-4.6007 -10.0028,-11.9801 -17.1824,-15.0587 -5.0233,-1.9277 -8.0419,-5.747 -7.5302,-10.2898 9.8203,-2.8947 18.5639,5.6359 28.1057,6.9566 z"
       id="path5067"
       inkscape:connector-curvature="0"
       sodipodi:nodetypes="ccccccccc" />
    <path
       style="fill:#ddb9a1;fill-opacity:1;fill-rule:evenodd;stroke:#a68170;stroke-width:1px;stroke-linecap:butt;stroke-linejoin:miter;stroke-opacity:1"
       d="m 375.66638,250.37479 c -6.4354,-7.8828 -11.0074,-17.7713 -11.0243,-28.0841 -0.073,-8.2938 4.5219,-16.8511 12.2884,-20.245 8.3683,-3.7454 19.5334,-0.7992 24.0932,7.3936 1.5969,2.9015 2.4503,6.3066 1.8902,9.6013 -0.3727,9.2747 4.7227,17.8524 4.1164,27.1378 -0.3231,5.0309 -3.8239,10.089 -9.0063,10.9754 -6.1055,1.2364 -11.7253,-2.2487 -17.0528,-4.6838 -1.7242,-0.802 -3.4767,-1.5608 -5.3048,-2.0952 z"
       id="path4374-0"
       inkscape:connector-curvature="0" />
    <path
       style="fill:#ddb9a1;fill-opacity:1;fill-rule:evenodd;stroke:#a68170;stroke-width:1px;stroke-linecap:butt;stroke-linejoin:miter;stroke-opacity:1"
       d="m 307.98618,260.98139 c 3.2232,-13.5762 -2.3358,-28.0453 -10.9654,-38.4298 -11.1348,-7.6991 -13.925,7.7376 -14.0134,15.6846 -4.6834,11.4785 -5.0302,29.3278 9.8845,32.9973 5.8034,2.6208 21.4671,-1.8771 15.0943,-10.2521 z"
       id="path4378-9"
       inkscape:connector-curvature="0" />
    <path
       style="fill:#413f3c;fill-opacity:1;fill-rule:evenodd;stroke:none;stroke-width:1px;stroke-linecap:butt;stroke-linejoin:miter;stroke-opacity:1"
       d="m 362.53448,249.36469 c -3.1736,18.583 -33.203,18.9982 -30.9109,40.0095 2.8417,21.1859 29.6525,14.4644 36.6964,32.436 10.4651,14.6707 0.1908,54.6165 13.4716,67.3149 20.703,10.5439 25.1964,-17.8982 21.4711,-30.6665 -12.366,-14.0305 18.6146,-54.7612 5.2454,-67.8163 -11.4022,-12.2642 -9.0756,-34.7316 -28.8572,-36.6882 -5.3236,-2.5161 -11.0194,-5.4538 -17.1164,-4.5894 z"
       id="path4382-3"
       inkscape:connector-curvature="0"
       sodipodi:nodetypes="cccccccc" />
    <path
       style="fill:#000000;fill-opacity:1;fill-rule:evenodd;stroke:none;stroke-width:1px;stroke-linecap:butt;stroke-linejoin:miter;stroke-opacity:1"
       d="m 390.31358,298.10449 c -2.2881,7.0362 -0.5015,14.9448 -5.0074,20.867 -2.8541,6.243 5.3932,6.8327 4.0035,-0.081 -0.425,-6.2577 3.6708,-12.1282 2.4178,-18.2525 -0.3228,-0.916 -1.1148,-3.4528 -1.4139,-2.5332 z"
       id="path4437-6"
       inkscape:connector-curvature="0"
       sodipodi:nodetypes="scccs" />
    <path
       style="fill:#000000;fill-opacity:1;fill-rule:evenodd;stroke:none;stroke-width:1px;stroke-linecap:butt;stroke-linejoin:miter;stroke-opacity:1"
       d="m 322.38088,326.13629 c -4.402,-0.012 3.855,8.4015 7.364,10.9624 2.2543,2.2994 10.7853,7.5709 9.7642,1.047 0,0 -7.9399,-2.7989 -11.3741,-5.6332 -2.0827,-1.4987 -5.7541,-6.3762 -5.7541,-6.3762 z"
       id="path4451-0"
       inkscape:connector-curvature="0"
       sodipodi:nodetypes="scccs" />
    <path
       style="fill:#514e4b;fill-opacity:1;fill-rule:evenodd;stroke:none;stroke-width:1px;stroke-linecap:butt;stroke-linejoin:miter;stroke-opacity:1"
       d="m 374.15118,308.45859 c 8.2743,9.8331 8.0026,23.3032 10.0579,35.3043 0.9287,5.3818 2.4429,10.7896 5.4972,15.3807 9.0814,5.7538 11.482,14.7272 10.8697,26.0233 -1.4744,11.1674 1.3149,19.0179 -7.7328,22.9399 -5.7972,2.7888 -8.2604,0.8248 -13.0155,-4.4747 -3.2053,-2.9949 -0.337,-8.1768 -1.7565,-11.9715 -2.0774,-10.1368 1.785,-21.4466 -6.1838,-27.6494 -6.8808,-10.4604 -2.9795,-15.5361 -11.7656,-24.9991 -4.9003,-3.9839 -12.5213,-9.7135 -7.771,-13.9514 7.5674,-7.0033 -14.7128,-28.1795 -5.1884,-31.1931 2.2182,-0.2982 24.858,13.9106 26.9888,14.591 z"
       id="path4380-6"
       inkscape:connector-curvature="0"
       sodipodi:nodetypes="cccccccccccc" />
    <path
       style="fill:#d48d8f;fill-opacity:1;fill-rule:evenodd;stroke:#c46c62;stroke-width:1px;stroke-linecap:butt;stroke-linejoin:miter;stroke-opacity:1"
       d="m 391.82738,383.40209 c -5.5534,-1.8328 -13.4137,1.7 -15.3692,8.461 -0.1778,5.6382 3.513,11.404 7.8816,14.7421 4.3191,2.7071 10.9743,2.1677 12.2389,-3.5897 3.3095,-4.4695 0.1957,-9.0163 -1.847,-13.2806 -0.5495,-2.3618 -0.699,-5.605 -2.9043,-6.3328 z"
       id="path4505-2"
       inkscape:connector-curvature="0"
       sodipodi:nodetypes="acccca" />
    <path
       style="fill:#a68170;fill-opacity:1;fill-rule:evenodd;stroke:none;stroke-width:1px;stroke-linecap:butt;stroke-linejoin:miter;stroke-opacity:1"
       d="m 381.98928,226.47979 c -5.7584,-0.1351 -3.5648,7.89 1.4291,6.782 5.1242,1.0392 6.5812,6.0323 5.8989,10.5713 0.1947,6.0546 8.916,4.1944 9.9494,-0.3926 0.5366,-5.4088 -4.1899,-9.9874 -7.1874,-14.1271 -2.0138,-0.8805 -8.7404,-5.9887 -10.09,-2.8336 z"
       id="path4862"
       inkscape:connector-curvature="0" />
    <path
       style="fill:#a68170;fill-opacity:1;fill-rule:evenodd;stroke:none;stroke-width:1px;stroke-linecap:butt;stroke-linejoin:miter;stroke-opacity:1"
       d="m 293.87028,243.28329 c -2.0466,0.4941 -3.3458,4.5832 -2.2935,7.969 0.8337,2.641 -0.033,7.1114 1.7656,8.3889 1.4882,0.8921 3.9714,-0.451 3.3602,-4.0956 -0.4993,-3.5329 -0.959,-7.1587 -2.1664,-10.1596 -0.2308,-0.6913 -0.4594,-1.3859 -0.6659,-2.1027 z"
       id="path4871"
       inkscape:connector-curvature="0" />
    <g
       transform="translate(-1073.8985,-1347.4914)"
       id="g4998"
       style="stroke:#4d4d4d">
      <path
         inkscape:connector-curvature="0"
         id="path4880"
         d="m 1469.2336,1692.924 c 25.6915,-13.2096 61.6853,-12.6317 89.3051,-15.4774"
         style="fill:none;fill-rule:evenodd;stroke:#4d4d4d;stroke-width:1px;stroke-linecap:butt;stroke-linejoin:miter;stroke-opacity:1"
         sodipodi:nodetypes="cc" />
      <path
         inkscape:connector-curvature="0"
         id="path4882"
         d="m 1479.9131,1698.1864 c 26.8803,-9.5599 54.6935,2.9969 82.0306,1.2382"
         style="fill:none;fill-rule:evenodd;stroke:#4d4d4d;stroke-width:1px;stroke-linecap:butt;stroke-linejoin:miter;stroke-opacity:1" />
      <path
         inkscape:connector-curvature="0"
         id="path4884"
         d="m 1476.3532,1705.7703 c 36.467,5.4454 75.0336,16.987 108.1876,33.2766"
         style="fill:none;fill-rule:evenodd;stroke:#4d4d4d;stroke-width:1px;stroke-linecap:butt;stroke-linejoin:miter;stroke-opacity:1"
         sodipodi:nodetypes="cc" />
      <path
         inkscape:connector-curvature="0"
         id="path4886"
         d="m 1411.8122,1703.1392 c -22.1192,14.0407 -49.9637,22.7661 -63.4577,47.0515"
         style="fill:none;fill-rule:evenodd;stroke:#4d4d4d;stroke-width:1px;stroke-linecap:butt;stroke-linejoin:miter;stroke-opacity:1" />
      <path
         inkscape:connector-curvature="0"
         id="path4888"
         d="m 1431.1591,1711.1875 c -19.6028,10.4564 -56.3781,14.2415 -73.5181,29.7167"
         style="fill:none;fill-rule:evenodd;stroke:#4d4d4d;stroke-width:1px;stroke-linecap:butt;stroke-linejoin:miter;stroke-opacity:1"
         sodipodi:nodetypes="cc" />
      <path
         inkscape:connector-curvature="0"
         id="path4890"
         d="m 1431.0042,1724.6529 c -14.7112,19.1627 -47.4685,26.5984 -55.4093,51.2304"
         style="fill:none;fill-rule:evenodd;stroke:#4d4d4d;stroke-width:1px;stroke-linecap:butt;stroke-linejoin:miter;stroke-opacity:1"
         sodipodi:nodetypes="cc" />
      <path
         inkscape:connector-curvature="0"
         id="path4894"
         d="m 1442.4576,1731.3082 c -12.6778,19.4093 -42.2152,47.0592 -29.4072,71.506"
         style="fill:none;fill-rule:evenodd;stroke:#4d4d4d;stroke-width:1px;stroke-linecap:butt;stroke-linejoin:miter;stroke-opacity:1"
         sodipodi:nodetypes="cc" />
      <path
         inkscape:connector-curvature="0"
         id="path4898"
         d="m 1398.6563,1698.9602 c -11.3409,7.8338 -22.3449,21.0436 -21.5137,34.5148"
         style="fill:none;fill-rule:evenodd;stroke:#4d4d4d;stroke-width:1px;stroke-linecap:butt;stroke-linejoin:miter;stroke-opacity:1"
         sodipodi:nodetypes="cc" />
      <path
         inkscape:connector-curvature="0"
         id="path4906"
         d="m 1480.3774,1676.0536 c 42.4067,0.1292 87.0605,12.5753 121.1887,37.6103"
         style="fill:none;fill-rule:evenodd;stroke:#4d4d4d;stroke-width:1px;stroke-linecap:butt;stroke-linejoin:miter;stroke-opacity:1"
         sodipodi:nodetypes="cc" />
    </g>
  </g>
</svg>
