<?xml version="1.0" encoding="UTF-8" standalone="no"?>
<!-- Created with Inkscape (http://www.inkscape.org/) -->

<svg
   xmlns:dc="http://purl.org/dc/elements/1.1/"
   xmlns:cc="http://creativecommons.org/ns#"
   xmlns:rdf="http://www.w3.org/1999/02/22-rdf-syntax-ns#"
   xmlns:svg="http://www.w3.org/2000/svg"
   xmlns="http://www.w3.org/2000/svg"
   xmlns:sodipodi="http://sodipodi.sourceforge.net/DTD/sodipodi-0.dtd"
   xmlns:inkscape="http://www.inkscape.org/namespaces/inkscape"
   width="98.742554"
   height="71.035873"
   viewBox="0 0 98.742554 71.035873"
   id="svg2"
   version="1.1"
   inkscape:version="0.48.4 r9939"
   sodipodi:docname="long-evans-rearing-sideview.svg"
   inkscape:export-filename="/home/etienne/Dropbox/Kemere Lab/resx/Rodent Illustrations/Inkscape/long-evans-rearing-sideview.png"
   inkscape:export-xdpi="457.20001"
   inkscape:export-ydpi="457.20001">
  <defs
     id="defs4">
    <filter
       inkscape:label="Blur"
       id="filter4474"
       color-interpolation-filters="sRGB">
      <feGaussianBlur
         stdDeviation="6.25938 3.66"
         result="blur"
         id="feGaussianBlur4476" />
    </filter>
    <filter
       inkscape:label="Blur"
       id="filter4482"
       color-interpolation-filters="sRGB">
      <feGaussianBlur
         stdDeviation="6.26 3.66"
         result="blur"
         id="feGaussianBlur4484" />
    </filter>
    <filter
       inkscape:label="Blur"
       id="filter4486"
       x="-1"
       y="-1"
       width="3"
       height="3"
       color-interpolation-filters="sRGB">
      <feGaussianBlur
         stdDeviation="8.5999999999999996 5.5999999999999996"
         result="blur"
         id="feGaussianBlur4488" />
    </filter>
    <filter
       id="filter4278"
       inkscape:label="Blur"
       color-interpolation-filters="sRGB">
      <feGaussianBlur
         id="feGaussianBlur4280"
         result="blur"
         stdDeviation="14.33 6" />
    </filter>
  </defs>
  <sodipodi:namedview
     id="base"
     pagecolor="#ffffff"
     bordercolor="#666666"
     borderopacity="1.0"
     inkscape:pageopacity="0.0"
     inkscape:pageshadow="2"
     inkscape:zoom="1.4142136"
     inkscape:cx="3.4835613"
     inkscape:cy="-67.813035"
     inkscape:document-units="px"
     inkscape:current-layer="layer1"
     showgrid="false"
     inkscape:window-width="1871"
     inkscape:window-height="1056"
     inkscape:window-x="49"
     inkscape:window-y="24"
     inkscape:window-maximized="1"
     fit-margin-top="0"
     fit-margin-left="0"
     fit-margin-right="0"
     fit-margin-bottom="0" />
  <metadata
     id="metadata7">
    <rdf:RDF>
      <cc:Work
         rdf:about="">
        <dc:format>image/svg+xml</dc:format>
        <dc:type
           rdf:resource="http://purl.org/dc/dcmitype/StillImage" />
        <dc:title></dc:title>
      </cc:Work>
    </rdf:RDF>
  </metadata>
  <g
     inkscape:label="Layer 1"
     inkscape:groupmode="layer"
     id="layer1"
     transform="translate(-224.32509,-483.51264)">
    <g
       id="g3150"
       transform="translate(1.4142134,-14.849242)">
      <path
         id="path4139"
         d="m 312.53764,498.90848 c 0,0 0,0 -0.90332,0.39062 -0.90332,0.39551 -2.70996,1.17676 -4.27734,2.00684 -1.56738,0.82519 -2.89551,1.69433 -4.11621,2.42675 -1.2207,0.72754 -2.3291,1.31836 -3.33008,1.67481 -1.00098,0.36133 -1.89453,0.48828 -2.90527,0.50293 -1.01074,0.01 -2.14356,-0.10254 -3.08106,0.0977 -0.9375,0.19531 -1.6748,0.69335 -2.14355,1.23046 -0.46875,0.53223 -0.66407,1.09864 -0.71777,1.66504 -0.0586,0.56153 0.0293,1.12793 0.31738,1.62598 0.2832,0.49805 0.7666,0.92773 1.20117,0.84961 0.43457,-0.0732 0.8252,-0.6543 1.3916,-1.02051 0.56641,-0.37109 1.3086,-0.52246 1.87988,-0.48828 0.57129,0.0342 0.97168,0.24902 0.86426,0.92773 -0.1123,0.67383 -0.73242,1.80665 -1.25,2.75391 -0.51758,0.94238 -0.93262,1.70898 -1.46484,2.28516 -0.53711,0.57617 -1.18653,0.96679 -1.79688,2.04589 -0.61035,1.07422 -1.17675,2.8418 -2.21191,4.94141 -1.03516,2.09961 -2.53418,4.53613 -4.40918,7.20215 -1.87012,2.66601 -4.11133,5.56152 -5.77637,7.57812 -1.66504,2.01172 -2.75391,3.14453 -3.58886,4.15528 -0.83497,1.01074 -1.41602,1.89941 -1.97266,3.33007 -0.55176,1.43555 -1.07422,3.41797 -1.7041,4.95117 -0.62989,1.53809 -1.37207,2.62696 -1.66504,3.29102 -0.29297,0.65918 -0.1416,0.90332 0.0293,1.2207 0.17578,0.32227 0.36621,0.72754 0.67871,1.35254 0.31738,0.62989 0.75195,1.47949 1.08887,2.1875 0.33691,0.70801 0.57617,1.26953 0.66406,1.69434 0.0879,0.4248 0.0195,0.70801 0.13183,1.04492 0.10743,0.33691 0.39063,0.73242 0.67383,0.92773 0.28321,0.19532 0.56641,0.19532 0.81543,0.10743 0.24903,-0.0879 0.46875,-0.25879 0.76172,-0.34668 0.29297,-0.0879 0.66406,-0.0879 1.01074,-0.0342 0.35157,0.0537 0.67871,0.16114 0.91797,0.12208 0.23926,-0.0439 0.39063,-0.23926 0.46875,-0.53711 0.0732,-0.29297 0.0732,-0.6836 -0.0147,-1.17188 -0.0879,-0.49316 -0.25879,-1.0791 -0.37109,-1.39648 -0.10743,-0.3125 -0.15137,-0.35645 0.0977,-0.33691 0.25391,0.0244 0.7959,0.1123 1.35254,0.23925 0.55664,0.13184 1.12305,0.30762 1.75293,0.62012 0.62988,0.31738 1.32812,0.77637 1.94824,1.23047 0.62012,0.45898 1.16211,0.91308 1.61621,1.37207 0.45899,0.4541 0.82031,0.90332 1.08887,1.29883 0.26855,0.39062 0.43945,0.72754 0.53223,1.21582 0.0928,0.48828 0.10253,1.13281 0.0195,1.5625 -0.083,0.43457 -0.26367,0.65429 -0.3125,0.80078 -0.0537,0.14648 0.0244,0.22461 0.26856,0.36621 0.24414,0.1416 0.65918,0.34668 1.23047,0.57617 0.57129,0.22461 1.30859,0.46875 1.97754,0.65918 0.66894,0.19531 1.27441,0.33692 1.8457,0.39551 0.57617,0.0586 1.11816,0.0293 1.72363,0.0439 0.60547,0.0147 1.27442,0.0635 1.69434,0.10254 0.41504,0.0391 0.58594,0.0635 0.79101,0.13672 0.20508,0.0732 0.44434,0.19043 0.72266,0.25878 0.27344,0.0732 0.58105,0.10254 0.80078,0.10254 0.21973,0 0.34668,-0.0293 0.39551,-0.11719 0.0439,-0.0928 0.005,-0.24414 -0.0977,-0.37597 -0.10254,-0.12696 -0.27344,-0.22949 -0.23438,-0.29297 0.0391,-0.0635 0.2832,-0.0928 0.63965,-0.11719 0.35156,-0.0244 0.81543,-0.0537 1.14746,-0.13183 0.32715,-0.0732 0.52246,-0.20508 0.57129,-0.33204 0.0537,-0.12695 -0.0391,-0.25879 -0.29785,-0.48828 -0.25391,-0.23437 -0.67871,-0.5664 -1.11328,-0.80078 -0.42969,-0.22949 -0.86914,-0.36133 -1.41114,-0.35156 -0.54199,0.005 -1.18164,0.14648 -1.82617,0.24414 -0.64453,0.0928 -1.28906,0.14648 -2.06055,0.10742 -0.77636,-0.0391 -1.6748,-0.16601 -2.31933,-0.24902 -0.64453,-0.083 -1.03027,-0.12207 -1.22559,-0.24414 -0.19043,-0.12695 -0.19043,-0.33203 -0.0977,-0.52734 0.0977,-0.2002 0.29297,-0.39551 0.58594,-0.69825 0.29785,-0.30273 0.69824,-0.71289 1.0498,-1.06445 0.35645,-0.34668 0.66406,-0.62988 1.00098,-1.24023 0.33203,-0.61524 0.69336,-1.55274 1.09375,-3.16406 0.40039,-1.61133 0.83984,-3.88672 1.19141,-5.35645 0.35644,-1.46973 0.625,-2.12402 0.85937,-2.9834 0.22949,-0.85449 0.4248,-1.91406 0.61523,-2.96875 0.19532,-1.05469 0.38575,-2.11426 0.96192,-3.50586 0.57129,-1.3916 1.52344,-3.11523 2.28027,-4.35547 0.75684,-1.23535 1.32324,-1.9873 1.97266,-2.71972 0.64453,-0.73731 1.38183,-1.45508 2.08496,-2.08008 0.69824,-0.625 1.36719,-1.15234 1.87012,-1.48926 0.50293,-0.33691 0.83984,-0.47851 1.07422,-0.55176 0.23925,-0.0781 0.38085,-0.0928 0.59082,-0.0732 0.20507,0.0195 0.47363,0.0732 0.67382,0.20019 0.2002,0.12696 0.32715,0.33203 0.42969,0.54199 0.10743,0.20508 0.18067,0.41016 0.26856,0.5127 0.083,0.10254 0.17089,0.10254 0.28808,0.13672 0.11719,0.0342 0.25879,0.0977 0.41016,0.10742 0.15625,0.0147 0.32226,-0.0244 0.60547,-0.15136 0.2832,-0.13184 0.68359,-0.34668 0.96679,-0.542 0.28321,-0.19531 0.44922,-0.36132 0.66895,-0.40039 0.21973,-0.0391 0.49316,0.0537 0.72266,-0.0146 0.23437,-0.0635 0.4248,-0.2832 0.52246,-0.43945 0.0977,-0.16602 0.0977,-0.26855 -0.0147,-0.30273 -0.10743,-0.0391 -0.32715,-0.0147 -0.36133,-0.0732 -0.0293,-0.0586 0.12695,-0.2002 0.36133,-0.36621 0.23925,-0.1709 0.56152,-0.36133 0.78125,-0.58106 0.21972,-0.21972 0.33203,-0.46386 0.30761,-0.60547 -0.0244,-0.1416 -0.19043,-0.18066 -0.44922,-0.24902 -0.25879,-0.0635 -0.61035,-0.16113 -0.89355,-0.15625 -0.27832,0 -0.49317,0.10254 -0.68848,0.1709 -0.19531,0.0732 -0.36621,0.11719 -0.51758,0.22949 -0.14648,0.1123 -0.26855,0.28809 -0.43456,0.40527 -0.1709,0.11719 -0.38575,0.18067 -0.63477,0.18067 -0.25391,0.005 -0.54199,-0.0488 -0.68848,-0.10254 -0.15137,-0.0537 -0.15625,-0.10254 -0.20508,-0.22949 -0.0439,-0.12207 -0.12695,-0.3125 -0.24902,-0.53223 -0.12207,-0.21972 -0.2832,-0.47363 -0.43457,-0.71777 -0.14648,-0.23926 -0.2832,-0.47852 -0.38086,-0.86426 -0.0977,-0.39062 -0.15625,-0.92773 -0.1416,-1.55273 0.0147,-0.62012 0.10254,-1.32324 0.20019,-1.85547 0.0928,-0.52734 0.19044,-0.88867 0.21973,-1.31836 0.0293,-0.42969 -0.01,-0.93262 -0.0439,-1.26465 -0.0342,-0.33203 -0.0635,-0.49316 -0.0879,-0.67383 -0.0293,-0.18554 -0.0537,-0.39062 0,-0.73242 0.0537,-0.34668 0.18555,-0.82519 0.24903,-1.32324 0.0684,-0.50293 0.0684,-1.02539 0.0537,-1.43555 -0.01,-0.41504 -0.0293,-0.72265 0.1416,-0.95214 0.17578,-0.22461 0.54688,-0.38086 0.83984,-0.64942 0.29297,-0.27344 0.5127,-0.66406 0.70801,-0.99121 0.19531,-0.32715 0.3711,-0.58594 0.49805,-0.80566 0.13184,-0.21973 0.21973,-0.39063 0.35156,-0.64454 0.13184,-0.24902 0.30274,-0.57617 0.52246,-0.75683 0.21485,-0.19043 0.47852,-0.22949 0.71778,-0.56641 0.23925,-0.34179 0.45898,-0.97168 0.67382,-1.51855 0.21485,-0.54688 0.42969,-1.01074 0.625,-1.58203 0.19532,-0.56641 0.36622,-1.24512 0.542,-1.85059 0.17578,-0.61035 0.34668,-1.15722 0.61035,-1.83105 0.25879,-0.67383 0.61035,-1.47949 0.94726,-2.08985 0.33692,-0.61035 0.66407,-1.0205 0.78125,-1.38183 0.12208,-0.36133 0.0342,-0.66406 0.0244,-0.9375 -0.01,-0.26856 0.0537,-0.50781 -0.0244,-0.71778 -0.0732,-0.20507 -0.29297,-0.38086 -0.41504,-0.49804 -0.11718,-0.12207 -0.13671,-0.18555 -0.11718,-0.54688 0.0244,-0.35644 0.0879,-1.01074 0.0342,-1.42578 -0.0537,-0.41018 -0.22948,-0.58597 -0.45898,-0.70804 -0.22949,-0.11718 -0.51269,-0.18554 -0.89355,-0.1416 -0.38086,0.0439 -0.85937,0.19532 -1.09863,0.27344 -0.23926,0.0781 -0.23926,0.0781 -0.23926,0.0781"
         style="fill:#ffffff;fill-opacity:1;fill-rule:evenodd;stroke:none"
         inkscape:connector-curvature="0" />
      <path
         id="path4141"
         d="m 314.84721,504.51883 c 0,0 0,0 0.0684,0.15625 0.0684,0.15625 0.20507,0.47851 0.3955,1.08398 0.18555,0.61035 0.42481,1.51367 0.6543,2.63672 0.22949,1.12305 0.44434,2.4707 0.61035,3.78906 0.16113,1.31836 0.26856,2.60742 0.32227,3.25196 0.0586,0.64453 0.0586,0.64453 0.0586,0.64453"
         style="fill:#ffffff;fill-opacity:1;fill-rule:evenodd;stroke:none"
         inkscape:connector-curvature="0" />
      <path
         id="path4143"
         d="m 315.68218,502.8782 c 0,0 0,0 0.30273,-0.01 0.29785,-0.0147 0.90332,-0.0342 1.50391,-0.0147 0.60058,0.0244 1.20605,0.0928 1.88964,0.21973 0.6836,0.12695 1.45508,0.30762 1.84083,0.40039 0.38574,0.0879 0.38574,0.0879 0.38574,0.0879"
         style="fill:#ffffff;fill-opacity:1;fill-rule:evenodd;stroke:none"
         inkscape:connector-curvature="0" />
      <path
         id="path4145"
         d="m 310.33061,499.93875 c 0,0 0,0 -0.15137,-0.0732 -0.15625,-0.0732 -0.46386,-0.21973 -0.99609,-0.36133 -0.53711,-0.13672 -1.29883,-0.26856 -2.06543,-0.35156 -0.77148,-0.083 -1.54297,-0.12207 -2.25098,-0.13672 -0.708,-0.0195 -1.35253,-0.005 -1.6748,0 -0.32226,0.005 -0.32226,0.005 -0.32226,0.005"
         style="fill:#ffffff;fill-opacity:1;fill-rule:evenodd;stroke:none"
         inkscape:connector-curvature="0" />
      <path
         id="path4147"
         d="m 309.50054,500.2073 c 0,0 0,0 -0.27833,-0.0391 -0.27832,-0.0391 -0.83496,-0.11719 -1.45019,-0.13183 -0.62012,-0.0147 -1.30371,0.0342 -2.00195,0.10253 -0.69825,0.0684 -1.41114,0.15625 -2.11914,0.26856 -0.70313,0.10742 -1.39649,0.23437 -2.17286,0.41016 -0.78125,0.18066 -1.6455,0.40039 -2.08008,0.51269 -0.42968,0.11231 -0.42968,0.11231 -0.42968,0.11231"
         style="fill:#ffffff;fill-opacity:1;fill-rule:evenodd;stroke:none"
         inkscape:connector-curvature="0" />
      <path
         id="path4149"
         d="m 312.53764,498.90848 c 0,0 0,0 -0.90332,0.39062 -0.90332,0.39551 -2.70996,1.17676 -4.27734,2.00684 -1.56738,0.82519 -2.89551,1.69433 -4.11621,2.42675 -1.2207,0.72754 -2.3291,1.31836 -3.33008,1.67481 -1.00098,0.36133 -1.89453,0.48828 -2.90527,0.50293 -1.01074,0.01 -2.14356,-0.10254 -3.08106,0.0977 -0.9375,0.19531 -1.6748,0.69335 -2.14355,1.23046 -0.46875,0.53223 -0.66407,1.09864 -0.71777,1.66504 -0.0586,0.56153 0.0293,1.12793 0.31738,1.62598 0.2832,0.49805 0.7666,0.92773 1.20117,0.84961 0.43457,-0.0732 0.8252,-0.6543 1.3916,-1.02051 0.56641,-0.37109 1.3086,-0.52246 1.87988,-0.48828 0.57129,0.0342 0.97168,0.24902 0.86426,0.92773 -0.1123,0.67383 -0.73242,1.80665 -1.25,2.75391 -0.51758,0.94238 -0.93262,1.70898 -1.46484,2.28516 -0.53711,0.57617 -1.18653,0.96679 -1.79688,2.04589 -0.61035,1.07422 -1.17675,2.8418 -1.80664,4.13575 -0.62988,1.29882 -1.32324,2.1289 -1.35742,2.48047 -0.0293,0.35644 0.60059,0.22949 1.04981,0.48339 0.44433,0.25879 0.70312,0.89844 0.39062,1.74805 -0.31738,0.84961 -1.21582,1.90918 -2.50977,3.95019 -1.29394,2.0459 -2.98339,5.07325 -4.9707,7.95411 -1.99219,2.88086 -4.27734,5.61035 -5.80566,7.84667 -1.52344,2.23633 -2.29492,3.97461 -2.92481,5.37598 -0.625,1.39649 -1.11328,2.45117 -0.86914,3.17871 0.24414,0.73242 1.21582,1.13281 2.33399,1.01563 1.12304,-0.11719 2.39746,-0.75196 3.55957,-2.16797 1.16211,-1.41602 2.21679,-3.6084 3.30566,-6.12305 1.08887,-2.50976 2.21192,-5.34179 3.25195,-7.96875 1.03516,-2.62695 1.99219,-5.05859 3.20801,-7.2998 1.22071,-2.2461 2.7002,-4.30664 3.72071,-5.37598 1.02539,-1.07422 1.58691,-1.15722 2.28515,-1.03027 0.69824,0.12695 1.5332,0.45898 2.59766,1.2793 1.06445,0.82031 2.35351,2.1289 3.95019,2.74902 1.60157,0.62012 3.51075,0.55176 4.53125,0.41015 1.02051,-0.1416 1.15723,-0.36132 1.1377,-0.71289 -0.0147,-0.35156 -0.18555,-0.83496 -0.15625,-1.70898 0.0244,-0.86914 0.24414,-2.12402 0.33203,-3.00293 0.0879,-0.87891 0.0488,-1.38183 0.0147,-1.71387 -0.0342,-0.33203 -0.0635,-0.49316 -0.0879,-0.67382 -0.0293,-0.18555 -0.0537,-0.39063 0,-0.73243 0.0537,-0.34668 0.18555,-0.82519 0.24903,-1.32324 0.0684,-0.50293 0.0684,-1.02539 0.0537,-1.43555 -0.01,-0.41503 -0.0293,-0.72265 0.1416,-0.95214 0.17578,-0.22461 0.54687,-0.38086 0.83984,-0.64942 0.29297,-0.27344 0.5127,-0.66406 0.70801,-0.99121 0.19531,-0.32715 0.37109,-0.58594 0.49805,-0.80566 0.13183,-0.21973 0.21972,-0.39063 0.35156,-0.64453 0.13184,-0.24903 0.30273,-0.57618 0.52246,-0.75684 0.21484,-0.19043 0.47852,-0.22949 0.71777,-0.56641 0.23926,-0.34179 0.45899,-0.97167 0.67383,-1.51855 0.21485,-0.54687 0.42969,-1.01074 0.625,-1.58203 0.19531,-0.56641 0.36621,-1.24512 0.54199,-1.85059 0.17579,-0.61035 0.34668,-1.15722 0.61036,-1.83105 0.25878,-0.67383 0.61035,-1.47949 0.94726,-2.08985 0.33692,-0.61035 0.66406,-1.0205 0.78125,-1.38183 0.12208,-0.36133 0.0342,-0.66406 0.0244,-0.9375 -0.01,-0.26856 0.0537,-0.50781 -0.0244,-0.71777 -0.0732,-0.20508 -0.29297,-0.38086 -0.41504,-0.49805 -0.11719,-0.12207 -0.13672,-0.18555 -0.11719,-0.54688 0.0244,-0.35644 0.0879,-1.01074 0.0342,-1.42578 -0.0537,-0.41015 -0.22949,-0.58594 -0.45899,-0.70801 -0.22949,-0.11718 -0.51269,-0.18554 -0.89355,-0.1416 -0.38086,0.0439 -0.85937,0.19532 -1.09863,0.27344 -0.23926,0.0781 -0.23926,0.0781 -0.23926,0.0781"
         style="fill:#000000;fill-opacity:1;fill-rule:evenodd;stroke:none"
         inkscape:connector-curvature="0" />
      <path
         id="path4151"
         d="m 311.25835,504.50906 c -0.0293,0.49317 -0.59082,1.19629 -1.11328,1.22559 -0.52246,0.0293 -1.00586,-0.61035 -0.97657,-1.10352 0.0293,-0.49316 0.57129,-0.83496 1.09375,-0.86426 0.52246,-0.0293 1.02539,0.24903 0.9961,0.74219 z"
         style="fill:#ffffff;fill-opacity:1;fill-rule:evenodd;stroke:none"
         inkscape:connector-curvature="0" />
      <path
         id="path4153"
         d="m 306.60503,510.18289 c 0,0 0,0 -0.16114,-0.1416 -0.15625,-0.1416 -0.47851,-0.42969 -0.78613,-0.62012 -0.30762,-0.19531 -0.61035,-0.29297 -0.96191,-0.25879 -0.35156,0.0342 -0.75196,0.2002 -1.13281,0.64942 -0.37598,0.4541 -0.72755,1.1914 -0.91797,1.81152 -0.19532,0.62012 -0.2295,1.12305 -0.1709,1.56738 0.0635,0.43945 0.20996,0.8252 0.47851,1.12793 0.26856,0.30274 0.6543,0.51758 1.13281,0.73731 0.47364,0.21972 1.04493,0.43457 1.46485,0.44433 0.41504,0.005 0.68848,-0.19531 1.00586,-0.43457 0.31738,-0.24414 0.68359,-0.52734 0.94238,-0.94726 0.26367,-0.41993 0.41016,-0.97168 0.38574,-1.37207 -0.0244,-0.40528 -0.22461,-0.6543 -0.4248,-0.87403 -0.2002,-0.21484 -0.40528,-0.40039 -0.52734,-0.65918 -0.12696,-0.25879 -0.17579,-0.5957 -0.21973,-0.78125 -0.0391,-0.18066 -0.0732,-0.21484 -0.0928,-0.23437 -0.0147,-0.0147 -0.0147,-0.0147 -0.0147,-0.0147"
         style="fill:#ffffff;fill-opacity:1;fill-rule:evenodd;stroke:none"
         inkscape:connector-curvature="0" />
      <path
         id="path4155"
         d="m 304.64702,509.7825 c 0,0 0,0 -0.16113,0.1416 -0.15625,0.1416 -0.47852,0.42481 -0.62012,0.71289 -0.1416,0.2832 -0.10743,0.56641 -0.01,0.82031 0.10254,0.24903 0.26855,0.46875 0.42969,0.50782 0.15625,0.0439 0.30761,-0.0928 0.5664,-0.0586 0.26367,0.0342 0.62988,0.23437 0.95703,0.37598 0.32715,0.1416 0.61035,0.22949 0.81055,0.21972 0.20508,-0.01 0.31738,-0.10742 0.3125,-0.33691 -0.01,-0.22461 -0.1416,-0.57617 -0.21973,-0.91309 -0.0732,-0.33203 -0.0928,-0.64941 -0.23437,-0.85937 -0.1416,-0.20996 -0.41016,-0.3125 -0.6836,-0.41016 -0.27833,-0.10254 -0.56153,-0.2002 -0.72267,-0.24415 -0.16113,-0.0391 -0.19043,-0.0244 -0.20996,-0.0146 -0.0146,0.005 -0.0146,0.005 -0.0146,0.005"
         style="fill:#000000;fill-opacity:1;fill-rule:evenodd;stroke:none"
         inkscape:connector-curvature="0" />
      <path
         sodipodi:nodetypes="cccscccssccccccccsccscssscsccccc"
         id="path4167"
         d="m 275.12065,550.73464 -0.33203,0.6543 c -0.33203,0.65918 -0.99609,1.96777 -1.50879,2.77832 -0.50781,0.80567 -0.86914,1.1084 -2.33398,1.97266 -1.46485,0.86426 -4.03809,2.29004 -6.31836,3.4082 -2.28028,1.11328 -4.26758,1.92383 -6.97266,2.6709 -2.70508,0.74219 -6.12304,1.43066 -8.96973,1.87012 -2.85156,0.44433 -5.12695,0.64453 -9.08203,0.5957 -3.95508,-0.0488 -9.58496,-0.34668 -12.21679,-1.27442 -2.63184,-0.92773 -2.25586,-2.48046 -0.33204,-2.97851 1.92872,-0.49805 5.41016,0.0635 9.37989,0.33691 3.96484,0.27344 8.41797,0.25879 11.49414,0.01 3.07617,-0.24902 4.78027,-0.73242 5.94238,-1.1621 1.16699,-0.42481 1.78711,-0.80079 1.90918,-1.20606 0.12696,-0.40039 -0.24902,-0.83984 -0.68359,-0.80566 -0.43457,0.0293 -0.93262,0.52734 -2.27051,0.96191 -1.33301,0.43459 -3.51074,0.81056 -6.21582,0.96681 -2.70508,0.15137 -5.9375,0.0928 -9.2334,-0.21972 -3.2959,-0.3125 -6.65039,-0.86914 -8.95019,-0.83985 -2.30469,0.0293 -3.54493,0.6543 -4.38477,1.55274 -0.83984,0.90332 -1.27441,2.08496 -0.40527,3.20312 0.86914,1.11816 3.04687,2.17773 6.18652,2.89063 3.13965,0.71777 7.24609,1.08886 11.31836,1.11816 4.06738,0.0293 8.11035,-0.2832 12.17285,-0.95703 4.0625,-0.67383 8.14453,-1.7041 11.14746,-2.71485 3.00293,-1.01074 4.92188,-2.00195 7.00196,-2.87597 2.08496,-0.87402 3.70605,-2.68359 5.01953,-3.08399 1.31347,-0.40039 1.82422,-0.88671 2.26367,-0.73535 0.44433,0.15137 1.04101,0.15918 1.2168,-0.42675 0.17578,-0.58594 0.43065,-0.26562 0.49905,-1.65723 0.0635,-1.3916 0.35156,-2.64648 0.49316,-3.27148 l 0.1416,-0.62988"
         style="fill:#deaa87;fill-opacity:1;fill-rule:evenodd;stroke:#4c4e41;stroke-width:0.5;stroke-miterlimit:4;stroke-opacity:1;stroke-dasharray:none"
         inkscape:connector-curvature="0" />
      <path
         sodipodi:nodetypes="ccccccccccccccccsccscccccsccsccccccccccccccccccccccccscccccccccccscccccsccccccccccccccccsccccccsccccccccccccccsccccccccccccscccscccccccccac"
         inkscape:connector-curvature="0"
         d="m 311.63433,499.29912 c -0.90333,0.39552 -2.70997,1.17677 -4.27735,2.00684 -1.56738,0.8252 -2.8955,1.69434 -4.11622,2.42676 -1.2207,0.72754 -2.3291,1.31835 -3.33007,1.6748 -1.00098,0.36133 -1.89453,0.48828 -2.90528,0.50293 -1.01073,0.01 -2.14355,-0.1025 -3.08105,0.0976 -0.9375,0.19532 -1.6748,0.69336 -2.14355,1.23046 -0.46875,0.53223 -0.66406,1.09864 -0.71777,1.66504 -0.0586,0.56153 0.0292,1.12794 0.31737,1.62599 0.28322,0.49804 0.7666,0.92772 1.20118,0.8496 0.43457,-0.0733 0.8252,-0.65429 1.3916,-1.0205 0.56641,-0.3711 1.3086,-0.52246 1.87988,-0.48829 0.57129,0.0341 0.97168,0.24903 0.86425,0.92774 -0.11225,0.67382 -0.73241,1.80664 -1.25,2.7539 -0.51757,0.94239 -0.93261,1.70899 -1.46483,2.28516 -0.53712,0.57618 -1.18653,0.9668 -1.79688,2.0459 -0.61035,1.07421 -1.17676,2.8418 -2.21191,4.9414 -1.03516,2.09961 -2.53419,4.53614 -4.40919,7.20215 -1.87011,2.66601 -4.11132,5.56153 -5.77636,7.57812 -1.66504,2.01173 -2.7539,3.14454 -3.58886,4.15528 -0.83497,1.01074 -1.41603,1.89941 -1.97267,3.33007 -0.55175,1.43555 -1.07421,3.41798 -1.7041,4.95118 -0.62988,1.53809 -1.37207,2.62695 -1.66503,3.29101 -0.29298,0.65919 -0.1416,0.90333 0.0292,1.22071 0.17577,0.32227 0.36621,0.72754 0.67871,1.35254 0.31737,0.62988 0.75195,1.47949 1.08886,2.1875 0.33691,0.708 0.57618,1.26953 0.66406,1.69434 0.0879,0.4248 0.0195,0.708 0.13184,1.04491 0.10738,0.33691 0.39063,0.73243 0.67383,0.92774 0.2832,0.19531 0.56641,0.19531 0.81542,0.10737 0.24903,-0.0879 0.46875,-0.25878 0.76173,-0.34668 0.29296,-0.0879 0.66406,-0.0879 1.01073,-0.0341 0.35157,0.0538 0.67872,0.16114 0.91798,0.12213 0.23925,-0.044 0.39062,-0.23927 0.46875,-0.53712 0.0732,-0.29297 0.0732,-0.6836 -0.0146,-1.17187 -0.0879,-0.49316 -0.25878,-1.0791 -0.3711,-1.39649 -0.10737,-0.3125 -0.15136,-0.35644 0.0976,-0.33691 0.2539,0.0244 0.7959,0.11225 1.35254,0.23926 0.55663,0.13184 1.12305,0.30761 1.75292,0.62011 0.62989,0.31739 1.32813,0.77637 1.94825,1.23048 0.62012,0.45897 1.16211,0.91307 1.61621,1.37206 0.45898,0.4541 0.82032,0.90333 1.08887,1.29883 0.26855,0.39062 0.43945,0.72755 0.53222,1.21582 0.0928,0.48829 0.1025,1.13281 0.0195,1.5625 -0.083,0.43458 -0.26367,0.6543 -0.3125,0.80079 -0.0537,0.14647 0.0244,0.2246 0.26855,0.3662 0.24414,0.14161 0.65918,0.34669 1.23048,0.57617 0.57129,0.22462 1.30859,0.46875 1.97754,0.65919 0.66893,0.19531 1.27441,0.33691 1.8457,0.3955 0.57617,0.0586 1.11816,0.0292 1.72363,0.044 0.60547,0.0146 1.27442,0.0635 1.69433,0.1025 0.41505,0.039 0.58593,0.0635 0.79102,0.13671 0.20508,0.0733 0.44434,0.19044 0.72265,0.2588 0.27344,0.0732 0.58107,0.1025 0.80079,0.1025 0.21973,0 0.34668,-0.0293 0.3955,-0.11712 0.044,-0.0928 0.005,-0.24415 -0.0976,-0.37598 -0.1025,-0.12696 -0.27343,-0.2295 -0.23437,-0.29297 0.039,-0.0635 0.2832,-0.0928 0.63965,-0.11713 0.35156,-0.0244 0.81543,-0.0538 1.14746,-0.13183 0.32714,-0.0733 0.52245,-0.20508 0.57129,-0.33203 0.0537,-0.12696 -0.039,-0.25879 -0.29785,-0.48829 -0.25391,-0.23437 -0.67871,-0.5664 -1.11329,-0.80077 -0.42968,-0.2295 -0.86914,-0.36134 -1.41113,-0.35156 -0.54199,0.005 -1.18164,0.14647 -1.82617,0.24413 -0.64453,0.0928 -1.28906,0.14649 -2.06055,0.10738 -0.77636,-0.039 -1.6748,-0.16603 -2.31933,-0.24903 -0.64453,-0.083 -1.03028,-0.12212 -1.22559,-0.24413 -0.19043,-0.12697 -0.19043,-0.33204 -0.0976,-0.52735 0.0976,-0.2002 0.29297,-0.39552 0.58594,-0.69824 0.29785,-0.30274 0.69824,-0.7129 1.0498,-1.06446 0.35645,-0.34668 0.66406,-0.62988 1.00098,-1.24023 0.33203,-0.61524 0.69336,-1.55274 1.09375,-3.16406 0.40038,-1.61134 0.83985,-3.88673 1.19141,-5.35645 0.35644,-1.46973 0.625,-2.12403 0.85937,-2.9834 0.22949,-0.85449 0.4248,-1.91406 0.61523,-2.96875 0.19531,-1.05469 0.38575,-2.11425 0.96192,-3.50586 0.57129,-1.3916 1.52344,-3.11523 2.28027,-4.35547 0.75683,-1.23535 1.32325,-1.9873 1.97266,-2.71972 0.64452,-0.73731 1.38183,-1.45507 2.08496,-2.08007 0.69824,-0.625 1.36719,-1.15235 1.87011,-1.48927 0.50294,-0.33691 0.83985,-0.47851 1.07423,-0.55176 0.23925,-0.0781 0.38085,-0.0928 0.59081,-0.0733 0.20509,0.0195 0.47364,0.0733 0.67384,0.2002 0.20018,0.12695 0.32713,0.33203 0.42968,0.54199 0.10738,0.20507 0.18067,0.41015 0.26856,0.5127 0.083,0.1025 0.17089,0.1025 0.28808,0.13671 0.11713,0.0341 0.25879,0.0976 0.41015,0.10738 0.15625,0.0146 0.32228,-0.0244 0.60548,-0.15138 0.2832,-0.13182 0.68359,-0.34667 0.9668,-0.54199 0.2832,-0.19531 0.44921,-0.36132 0.66893,-0.40038 0.21973,-0.039 0.49317,0.0537 0.72267,-0.0146 0.23437,-0.0635 0.4248,-0.2832 0.52246,-0.43945 0.0976,-0.16602 0.0976,-0.26856 -0.0146,-0.30274 -0.10737,-0.039 -0.32715,-0.0146 -0.36133,-0.0733 -0.0292,-0.0586 0.12696,-0.2002 0.36133,-0.36621 0.23925,-0.1709 0.56153,-0.36134 0.78125,-0.58106 0.21973,-0.21973 0.33203,-0.46386 0.30762,-0.60546 -0.0244,-0.1416 -0.19043,-0.18067 -0.44922,-0.24903 -0.2588,-0.0635 -0.61036,-0.16114 -0.89356,-0.15625 -0.27831,0 -0.49316,0.1025 -0.68847,0.1709 -0.19532,0.0733 -0.36622,0.11713 -0.51758,0.22949 -0.14649,0.11225 -0.26856,0.28809 -0.43457,0.40527 -0.1709,0.11713 -0.38574,0.18067 -0.63477,0.18067 -0.25391,0.005 -0.54198,-0.0489 -0.68847,-0.1025 -0.15138,-0.0538 -0.15625,-0.1025 -0.20508,-0.22949 -0.044,-0.12213 -0.12696,-0.3125 -0.24902,-0.53223 -0.12213,-0.21973 -0.28321,-0.47363 -0.43458,-0.71777 -0.14648,-0.23926 -0.2832,-0.47853 -0.38086,-0.86426 -0.0976,-0.39063 -0.15625,-0.92774 -0.1416,-1.55274 0.0146,-0.62011 0.1025,-1.32324 0.2002,-1.85546 0.0928,-0.52735 0.19043,-0.88868 0.21973,-1.31837 0.0293,-0.42968 -0.01,-0.93261 -0.044,-1.26465 -0.0341,-0.33202 -0.0635,-0.49316 -0.0879,-0.67382 -0.0292,-0.18555 -0.0537,-0.39063 0,-0.73243 0.0537,-0.34667 0.18555,-0.82518 0.24903,-1.32323 0.0684,-0.50294 0.0684,-1.02539 0.0537,-1.43555 -0.01,-0.41504 -0.0292,-0.72265 0.1416,-0.95215 0.17577,-0.22462 0.54687,-0.38087 0.83983,-0.64942 0.29298,-0.27343 0.5127,-0.66406 0.70802,-0.99121 0.19531,-0.32715 0.3711,-0.58594 0.49805,-0.80566 0.13183,-0.21973 0.21972,-0.39063 0.35156,-0.64453 0.13184,-0.24902 0.30274,-0.57617 0.52246,-0.75683 0.21484,-0.19044 0.47851,-0.2295 0.71778,-0.56642 0.23925,-0.3418 0.45897,-0.97167 0.67382,-1.51855 0.21484,-0.54687 0.42969,-1.01075 0.625,-1.58203 0.19531,-0.5664 0.36621,-1.24512 0.54199,-1.85059 0.17579,-0.61035 0.34669,-1.15723 0.61035,-1.83105 0.25879,-0.67383 0.61035,-1.47949 0.94727,-2.08984 0.33692,-0.61036 0.66407,-1.02051 0.78125,-1.38183 0.12213,-0.36134 0.0341,-0.66407 0.0244,-0.9375 -0.01,-0.26857 0.0537,-0.50782 -0.0244,-0.71778 -0.0732,-0.20507 -0.29297,-0.38086 -0.41505,-0.49805 -0.11712,-0.12212 -0.13671,-0.18555 -0.11712,-0.54687 0.0244,-0.35645 0.0879,-1.01074 0.0341,-1.42578 -0.0538,-0.41016 -0.2295,-0.58594 -0.45898,-0.70801 -0.22949,-0.11713 -0.5127,-0.18555 -0.89355,-0.1416 -0.38087,0.0439 -0.85938,0.19531 -1.09864,0.27344 0,0 -0.24706,0.0678 -0.36757,0.1109 -0.23683,0.0847 -0.6968,0.28949 -0.6968,0.28949 z"
         style="fill:#efeae2;fill-opacity:1;fill-rule:evenodd;stroke:#4c4e41;stroke-width:0.5;stroke-linecap:butt;stroke-linejoin:round;stroke-miterlimit:10;stroke-opacity:1"
         id="path4157" />
      <path
         sodipodi:nodetypes="ccccccccc"
         id="path4167-0"
         d="m 275.12065,550.73464 -2.89453,2.9043 c -0.33203,0.65918 -0.37109,1.12402 -0.54004,2.12207 -3.35811,5.22369 3.60248,4.18984 5.80446,2.02397 1.21404,-0.26781 3.96504,1.04803 4.40449,1.19939 0.44433,0.15137 -0.0136,-0.73486 0.16215,-1.32076 1.61328,-0.21094 -1.6631,-1.48437 -1.5947,-2.87598 0.0635,-1.3916 0.35156,-2.64648 0.49316,-3.27148 l 0.1416,-0.62988"
         style="fill:#efeae2;fill-opacity:1;fill-rule:evenodd;stroke:none"
         inkscape:connector-curvature="0" />
      <path
         id="path4169"
         d="m 312.53764,498.90848 c 0,0 0,0 -0.90332,0.39062 -0.90332,0.39551 -2.70996,1.17676 -4.27734,2.00684 -1.56738,0.82519 -2.89551,1.69433 -4.11621,2.42675 -1.2207,0.72754 -2.3291,1.31836 -3.33008,1.67481 -1.00098,0.36133 -1.89453,0.48828 -2.90527,0.50293 -1.01074,0.01 -2.14356,-0.10254 -3.08106,0.0977 -0.9375,0.19531 -1.6748,0.69335 -2.14355,1.23046 -0.46875,0.53223 -0.66407,1.09864 -0.71777,1.66504 -0.0586,0.56153 0.0293,1.12793 0.31738,1.62598 0.2832,0.49805 0.7666,0.92773 1.20117,0.84961 0.43457,-0.0732 0.8252,-0.6543 1.3916,-1.02051 0.56641,-0.37109 1.3086,-0.52246 1.87988,-0.48828 0.57129,0.0342 0.97168,0.24902 0.86426,0.92773 -0.1123,0.67383 -0.73242,1.80665 -1.25,2.75391 -0.51758,0.94238 -0.93262,1.70898 -1.46484,2.28516 -0.53711,0.57617 -1.18653,0.96679 -1.79688,2.04589 -0.61035,1.07422 -1.17675,2.8418 -1.80664,4.13575 -0.62988,1.29882 -1.32324,2.1289 -1.35742,2.48047 -0.0293,0.35644 0.60059,0.22949 1.04981,0.48339 0.44433,0.25879 0.70312,0.89844 0.39062,1.74805 -0.31738,0.84961 -1.21582,1.90918 -2.50977,3.95019 -1.29394,2.0459 -2.98339,5.07325 -4.9707,7.95411 -1.99219,2.88086 -4.27734,5.61035 -5.80566,7.84667 -1.52344,2.23633 -2.29492,3.97461 -2.92481,5.37598 -0.625,1.39649 -1.11328,2.45117 -0.86914,3.17871 0.24414,0.73242 1.21582,1.13281 2.33399,1.01563 1.12304,-0.11719 2.39746,-0.75196 3.55957,-2.16797 1.16211,-1.41602 2.21679,-3.6084 3.30566,-6.12305 1.08887,-2.50976 2.21192,-5.34179 3.25195,-7.96875 1.03516,-2.62695 1.99219,-5.05859 3.20801,-7.2998 1.22071,-2.2461 2.7002,-4.30664 3.72071,-5.37598 1.02539,-1.07422 1.58691,-1.15722 2.28515,-1.03027 0.69824,0.12695 1.5332,0.45898 2.59766,1.2793 1.06445,0.82031 2.35351,2.1289 3.95019,2.74902 1.60157,0.62012 3.51075,0.55176 4.53125,0.41015 1.02051,-0.1416 1.15723,-0.36132 1.1377,-0.71289 -0.0147,-0.35156 -0.18555,-0.83496 -0.15625,-1.70898 0.0244,-0.86914 0.24414,-2.12402 0.33203,-3.00293 0.0879,-0.87891 0.0488,-1.38183 0.0147,-1.71387 -0.0342,-0.33203 -0.0635,-0.49316 -0.0879,-0.67382 -0.0293,-0.18555 -0.0537,-0.39063 0,-0.73243 0.0537,-0.34668 0.18555,-0.82519 0.24903,-1.32324 0.0684,-0.50293 0.0684,-1.02539 0.0537,-1.43555 -0.01,-0.41503 -0.0293,-0.72265 0.1416,-0.95214 0.17578,-0.22461 0.54687,-0.38086 0.83984,-0.64942 0.29297,-0.27344 0.5127,-0.66406 0.70801,-0.99121 0.19531,-0.32715 0.37109,-0.58594 0.49805,-0.80566 0.13183,-0.21973 0.21972,-0.39063 0.35156,-0.64453 0.13184,-0.24903 0.30273,-0.57618 0.52246,-0.75684 0.21484,-0.19043 0.47852,-0.22949 0.71777,-0.56641 0.23926,-0.34179 0.45899,-0.97167 0.67383,-1.51855 0.21485,-0.54687 0.42969,-1.01074 0.625,-1.58203 0.19531,-0.56641 0.36621,-1.24512 0.54199,-1.85059 0.17579,-0.61035 0.34668,-1.15722 0.61036,-1.83105 0.25878,-0.67383 0.61035,-1.47949 0.94726,-2.08985 0.33692,-0.61035 0.66406,-1.0205 0.78125,-1.38183 0.12208,-0.36133 0.0342,-0.66406 0.0244,-0.9375 -0.01,-0.26856 0.0537,-0.50781 -0.0244,-0.71777 -0.0732,-0.20508 -0.29297,-0.38086 -0.41504,-0.49805 -0.11719,-0.12207 -0.13672,-0.18555 -0.11719,-0.54688 0.0244,-0.35644 0.0879,-1.01074 0.0342,-1.42578 -0.0537,-0.41015 -0.22949,-0.58594 -0.45899,-0.70801 -0.22949,-0.11718 -0.51269,-0.18554 -0.89355,-0.1416 -0.38086,0.0439 -0.85937,0.19532 -1.09863,0.27344 -0.23926,0.0781 -0.23926,0.0781 -0.23926,0.0781"
         style="fill:#000000;fill-opacity:1;fill-rule:evenodd;stroke:none"
         inkscape:connector-curvature="0" />
      <path
         id="path4163"
         d="m 310.33061,499.93877 c 0,0 0,0 -0.15136,-0.0732 -0.15625,-0.0733 -0.46388,-0.21973 -0.9961,-0.36133 -0.53711,-0.13672 -1.29883,-0.26855 -2.06543,-0.35157 -0.77148,-0.083 -1.54297,-0.12212 -2.25097,-0.13671 -0.70801,-0.0195 -1.35255,-0.005 -1.67481,0 -0.32227,0.005 -0.32227,0.005 -0.32227,0.005"
         style="fill:none;stroke:#747275;stroke-width:0.5;stroke-linecap:round;stroke-linejoin:round;stroke-miterlimit:10;stroke-opacity:1"
         inkscape:connector-curvature="0" />
      <path
         id="path4165"
         d="m 309.50054,500.20732 c 0,0 0,0 -0.27833,-0.039 -0.27832,-0.039 -0.83496,-0.11712 -1.4502,-0.13183 -0.62011,-0.0146 -1.3037,0.0342 -2.00195,0.1025 -0.69824,0.0684 -1.41112,0.15625 -2.11914,0.26855 -0.70312,0.10737 -1.39648,0.23437 -2.17285,0.41015 -0.78125,0.18067 -1.64551,0.4004 -2.08007,0.5127 -0.42969,0.11225 -0.42969,0.11225 -0.42969,0.11225"
         style="fill:none;stroke:#747275;stroke-width:0.5;stroke-linecap:round;stroke-linejoin:round;stroke-miterlimit:10;stroke-opacity:1"
         inkscape:connector-curvature="0" />
      <path
         id="path4171"
         d="m 306.60503,510.18289 c 0,0 0,0 -0.16114,-0.1416 -0.15625,-0.1416 -0.47851,-0.42969 -0.78613,-0.62012 -0.30762,-0.19531 -0.61035,-0.29297 -0.96191,-0.25879 -0.35156,0.0342 -0.75196,0.2002 -1.13281,0.64942 -0.37598,0.4541 -0.72755,1.1914 -0.91797,1.81152 -0.19532,0.62012 -0.2295,1.12305 -0.1709,1.56738 0.0635,0.43945 0.20996,0.8252 0.47851,1.12793 0.26856,0.30274 0.6543,0.51758 1.13281,0.73731 0.47364,0.21972 1.04493,0.43457 1.46485,0.44433 0.41504,0.005 0.68848,-0.19531 1.00586,-0.43457 0.31738,-0.24414 0.68359,-0.52734 0.94238,-0.94726 0.26367,-0.41993 0.41016,-0.97168 0.38574,-1.37207 -0.0244,-0.40528 -0.22461,-0.6543 -0.4248,-0.87403 -0.2002,-0.21484 -0.40528,-0.40039 -0.52734,-0.65918 -0.12696,-0.25879 -0.17579,-0.5957 -0.21973,-0.78125 -0.0391,-0.18066 -0.0732,-0.21484 -0.0928,-0.23437 -0.0147,-0.0147 -0.0147,-0.0147 -0.0147,-0.0147"
         style="fill:#ac838a;fill-opacity:1;fill-rule:evenodd;stroke:none"
         inkscape:connector-curvature="0" />
      <path
         style="fill:#945661;fill-opacity:1;fill-rule:evenodd;stroke:none"
         d="m 304.64702,509.7825 c -0.31377,0.28189 -0.66735,0.55837 -0.82686,0.96254 -0.13404,0.39767 0.0266,0.84588 0.31243,1.13588 0.13149,0.12955 0.32168,0.0948 0.47611,0.0367 0.31415,-0.0671 0.60793,0.10037 0.8858,0.22106 0.36152,0.16414 0.73166,0.35788 1.13743,0.36435 0.19297,0.006 0.33288,-0.17344 0.29723,-0.35867 -0.0278,-0.32292 -0.17264,-0.62134 -0.22562,-0.93984 -0.0576,-0.25435 -0.0751,-0.5249 -0.19321,-0.7609 -0.13862,-0.24441 -0.41161,-0.35024 -0.66216,-0.44068 -0.28874,-0.10655 -0.57802,-0.21795 -0.87873,-0.28545 -0.0406,-0.007 -0.0844,-0.007 -0.12223,0.0113"
         id="path4173"
         inkscape:connector-curvature="0" />
      <path
         id="path4175"
         d="m 311.25835,504.50906 c -0.0293,0.49317 -0.59082,1.19629 -1.11328,1.22559 -0.52246,0.0293 -1.00586,-0.61035 -0.97657,-1.10352 0.0293,-0.49316 0.57129,-0.83496 1.09375,-0.86426 0.52246,-0.0293 1.02539,0.24903 0.9961,0.74219 z"
         style="fill:#ffffff;fill-opacity:1;fill-rule:evenodd;stroke:none"
         inkscape:connector-curvature="0" />
      <path
         id="path4159"
         d="m 312.8606,503.00099 c 0,0 0,0 0.0684,0.15625 0.0684,0.15625 0.20507,0.47851 0.3955,1.08399 0.18555,0.61034 0.42481,1.51367 0.6543,2.63671 0.2295,1.12305 0.44433,2.47071 0.61035,3.78906 0.16113,1.31836 0.26856,2.60742 0.32227,3.25196 0.0586,0.64453 0.0586,0.64453 0.0586,0.64453"
         style="fill:none;stroke:#747275;stroke-width:0.5;stroke-linecap:round;stroke-linejoin:round;stroke-miterlimit:10;stroke-opacity:1"
         inkscape:connector-curvature="0" />
      <path
         id="path4161"
         d="m 313.52219,501.47431 c 0,0 0,0 0.40147,-0.009 0.39498,-0.0135 1.1979,-0.0315 1.99436,-0.0135 0.79646,0.0226 1.59941,0.0858 2.50592,0.20308 0.90654,0.11734 1.92962,0.28435 2.44118,0.37008 0.51153,0.0813 0.51153,0.0813 0.51153,0.0813"
         style="fill:none;stroke:#747275;stroke-width:0.55356503;stroke-linecap:round;stroke-linejoin:round;stroke-miterlimit:10;stroke-opacity:1"
         inkscape:connector-curvature="0" />
      <path
         id="path4159-1"
         d="m 313.19888,502.27043 c 0,0 0,0 0.10517,0.0707 0.10517,0.0707 0.31892,0.21764 0.67273,0.51285 0.35204,0.29943 0.84759,0.75274 1.41471,1.33582 0.56714,0.58308 1.20409,1.30016 1.79538,2.01431 0.58778,0.71557 1.1264,1.42962 1.3957,1.78665 0.27283,0.35563 0.27283,0.35563 0.27283,0.35563"
         style="fill:none;stroke:#747275;stroke-width:0.5;stroke-linecap:round;stroke-linejoin:round;stroke-miterlimit:10;stroke-opacity:1;stroke-dasharray:none"
         inkscape:connector-curvature="0" />
      <path
         sodipodi:nodetypes="caaaaaaaaaaccc"
         inkscape:connector-curvature="0"
         id="path4255"
         d="m 313.40904,498.66341 c -0.24,0.0685 -0.46655,0.13312 -0.67082,0.25839 -0.12307,0.0755 -0.24397,0.16819 -0.322,0.28966 -0.0988,0.15386 -0.18974,0.34242 -0.1641,0.52348 0.0305,0.2155 0.16983,0.43956 0.3606,0.54434 0.3686,0.20245 0.8548,0.13108 1.2614,0.0237 0.19452,-0.0514 0.3287,-0.24307 0.51919,-0.30781 0.21749,-0.0739 0.52185,0.08 0.68416,-0.0826 0.14596,-0.14618 0.0984,-0.41031 0.0734,-0.61535 -0.0171,-0.1397 -0.0553,-0.29032 -0.14954,-0.39485 -0.16765,-0.18595 -0.42801,-0.27755 -0.67118,-0.33712 -0.17367,-0.0425 -0.32829,-0.0453 -0.53635,-0.008 -0.0875,0.0513 -0.29293,0.063 -0.38471,0.1062 z"
         style="fill:#945661;fill-opacity:1;fill-rule:evenodd;stroke:none" />
      <path
         sodipodi:nodetypes="ccc"
         inkscape:connector-curvature="0"
         d="m 273.16154,559.83154 c 2.36052,-1.84281 2.9935,-1.71389 4.66896,-1.66521 0.2539,0.0244 0.7959,0.11225 1.35254,0.23926"
         style="fill:none;stroke:#4c4e41;stroke-width:0.5;stroke-linecap:butt;stroke-linejoin:round;stroke-miterlimit:10;stroke-opacity:1"
         id="path4157-9" />
    </g>
  </g>
</svg>
