<?xml version="1.0" encoding="UTF-8" standalone="no"?>
<!-- Created with Inkscape (http://www.inkscape.org/) -->

<svg
   xmlns:dc="http://purl.org/dc/elements/1.1/"
   xmlns:cc="http://creativecommons.org/ns#"
   xmlns:rdf="http://www.w3.org/1999/02/22-rdf-syntax-ns#"
   xmlns:svg="http://www.w3.org/2000/svg"
   xmlns="http://www.w3.org/2000/svg"
   xmlns:sodipodi="http://sodipodi.sourceforge.net/DTD/sodipodi-0.dtd"
   xmlns:inkscape="http://www.inkscape.org/namespaces/inkscape"
   width="14.196488mm"
   height="6.5375519mm"
   viewBox="0 0 50.302518 23.164554"
   id="svg2"
   version="1.1"
   inkscape:version="0.91 r13725"
   sodipodi:docname="rat-simple-v2-longevans.svg">
  <defs
     id="defs4" />
  <sodipodi:namedview
     id="base"
     pagecolor="#ffffff"
     bordercolor="#666666"
     borderopacity="1.0"
     inkscape:pageopacity="0.0"
     inkscape:pageshadow="2"
     inkscape:zoom="11.2"
     inkscape:cx="41.415769"
     inkscape:cy="11.033549"
     inkscape:document-units="px"
     inkscape:current-layer="layer1"
     showgrid="false"
     fit-margin-top="0"
     fit-margin-left="0"
     fit-margin-right="0"
     fit-margin-bottom="0"
     inkscape:window-width="1920"
     inkscape:window-height="1017"
     inkscape:window-x="-8"
     inkscape:window-y="-8"
     inkscape:window-maximized="1" />
  <metadata
     id="metadata7">
    <rdf:RDF>
      <cc:Work
         rdf:about="">
        <dc:format>image/svg+xml</dc:format>
        <dc:type
           rdf:resource="http://purl.org/dc/dcmitype/StillImage" />
        <dc:title></dc:title>
      </cc:Work>
    </rdf:RDF>
  </metadata>
  <g
     inkscape:label="Layer 1"
     inkscape:groupmode="layer"
     id="layer1"
     transform="translate(121.57983,-523.63707)">
    <g
       id="surface1215"
       transform="matrix(1.2499999,0,0,1.25,-122.1958,523.455)">
      <path
         id="path4139"
         d="M 20.433594,6.265625 C 25.78125,2.8125 38.976563,1.675781 40.222656,4.558594 41.46875,7.441406 30.765625,14.34375 24.167969,14.914063 17.570313,15.484375 15.082031,9.714844 20.433594,6.265625 Z"
         style="fill:#ffffff;fill-opacity:1;fill-rule:evenodd;stroke:none"
         inkscape:connector-curvature="0" />
      <path
         id="path4141"
         d="m 28.101563,3.625 c 0.582031,-0.570312 4.710937,-0.761719 7.503906,-0.574219 2.796875,0.1875 4.257812,0.75 4.644531,1.515625 0.386719,0.769532 -0.304687,1.738282 -1.210937,2.792969 -0.902344,1.050781 -2.019532,2.1875 -3.234375,2.964844 -1.210938,0.773437 -2.523438,1.191406 -2.988282,0.457031 -0.464843,-0.734375 -0.08594,-2.621094 -2.121093,-2.253906 -2.035157,0.367187 -6.492188,2.984375 -9.496094,3.773437 -3.007813,0.789063 -4.5625,-0.257812 -2.277344,-1.59375 2.28125,-1.339843 8.402344,-2.96875 9.984375,-4.261718 1.578125,-1.292969 -1.386719,-2.25 -0.804687,-2.820313 z"
         style="fill:#000000;fill-opacity:1;fill-rule:evenodd;stroke:none"
         inkscape:connector-curvature="0" />
      <path
         id="path4143"
         d="m 36.84375,7.503906 c 0,-0.363281 -0.296875,-0.660156 -0.660156,-0.660156 -0.367188,0 -0.660156,0.296875 -0.660156,0.660156 0,0.363282 0.292968,0.660157 0.660156,0.660157 0.363281,0 0.660156,-0.296875 0.660156,-0.660157"
         style="fill:#a8a8a8;fill-opacity:1;fill-rule:evenodd;stroke:none"
         inkscape:connector-curvature="0" />
      <path
         id="path4145"
         d="m 36.078125,4.949219 c 0,-0.363281 -0.296875,-0.660156 -0.660156,-0.660156 -0.367188,0 -0.660156,0.296875 -0.660156,0.660156 0,0.367187 0.292968,0.660156 0.660156,0.660156 0.363281,0 0.660156,-0.292969 0.660156,-0.660156"
         style="fill:#a8a8a8;fill-opacity:1;fill-rule:evenodd;stroke:none"
         inkscape:connector-curvature="0" />
      <path
         id="path4147"
         transform="matrix(1,0,0,-1,-210.718,751.914)"
         d="m 248.25706,744.34369 1.90625,-2.20703"
         style="fill:none;stroke:#3d3d3d;stroke-width:0.40000001;stroke-linecap:butt;stroke-linejoin:round;stroke-miterlimit:10;stroke-opacity:1"
         inkscape:connector-curvature="0" />
      <path
         id="path4149"
         transform="matrix(1,0,0,-1,-210.718,751.914)"
         d="m 248.70237,744.98822 2.63282,-1.91406"
         style="fill:none;stroke:#3d3d3d;stroke-width:0.40000001;stroke-linecap:butt;stroke-linejoin:round;stroke-miterlimit:10;stroke-opacity:1"
         inkscape:connector-curvature="0" />
      <path
         id="path4151"
         transform="matrix(1,0,0,-1,-210.718,751.914)"
         d="m 247.16331,748.11712 1,3.59766"
         style="fill:none;stroke:#3d3d3d;stroke-width:0.40000001;stroke-linecap:butt;stroke-linejoin:round;stroke-miterlimit:10;stroke-opacity:1"
         inkscape:connector-curvature="0" />
      <path
         id="path4153"
         transform="matrix(1,0,0,-1,-210.718,751.914)"
         d="m 246.07347,748.26556 -0.20313,3.44922"
         style="fill:none;stroke:#3d3d3d;stroke-width:0.40000001;stroke-linecap:butt;stroke-linejoin:round;stroke-miterlimit:10;stroke-opacity:1"
         inkscape:connector-curvature="0" />
      <path
         id="path4155"
         transform="matrix(1,0,0,-1,-210.718,751.914)"
         d="m 231.15159,745.64837 c 5.34766,3.45313 18.54297,4.58985 19.78907,1.70704 1.24609,-2.88282 -9.45704,-9.78516 -16.05469,-10.35547 -6.59766,-0.57032 -9.08594,5.19922 -3.73438,8.64843 z"
         style="fill:none;stroke:#3d3d3d;stroke-width:0.40000001;stroke-linecap:butt;stroke-linejoin:round;stroke-miterlimit:10;stroke-opacity:1"
         inkscape:connector-curvature="0" />
      <path
         id="path4157"
         transform="matrix(1,0,0,-1,-210.718,751.914)"
         d="m 244.88987,742.87103 c 0,0 0,0 -0.36718,-0.48047 -0.36719,-0.48437 -1.10157,-1.44922 -0.80469,-1.97265 0.30078,-0.52344 1.63281,-0.60938 2.20703,-0.20313 0.57422,0.40625 0.39063,1.30469 0.29688,1.75391 -0.0937,0.44922 -0.0937,0.44922 -0.0937,0.44922"
         style="fill:#000000;fill-opacity:1;fill-rule:evenodd;stroke:#3d3d3d;stroke-width:0.40000001;stroke-linecap:butt;stroke-linejoin:round;stroke-miterlimit:10;stroke-opacity:1"
         inkscape:connector-curvature="0" />
      <path
         id="path4159"
         transform="matrix(1,0,0,-1,-210.718,751.914)"
         d="m 243.74534,747.05462 c 0,0 0,0 -0.60156,0.0625 -0.60156,0.0625 -1.80859,0.1875 -1.98437,0.76563 -0.17969,0.57812 0.67187,1.60547 1.36328,1.74609 0.6875,0.14063 1.21484,-0.61328 1.48047,-0.98828 0.26562,-0.375 0.26562,-0.375 0.26562,-0.375"
         style="fill:#000000;fill-opacity:1;fill-rule:evenodd;stroke:#3d3d3d;stroke-width:0.40000001;stroke-linecap:butt;stroke-linejoin:round;stroke-miterlimit:10;stroke-opacity:1"
         inkscape:connector-curvature="0" />
      <path
         id="path4161"
         transform="matrix(1,0,0,-1,-210.718,751.914)"
         d="m 229.06956,739.99212 c 0,0 0,0 -1.60547,0.16407 -1.60156,0.16015 -4.80859,0.48437 -6.71484,-0.65235 -1.90234,-1.13672 -2.5,-3.73828 -3.80469,-4.92578 -1.30469,-1.18359 -3.3164,-0.95312 -4.32031,-0.83594 -1.00781,0.11329 -1.00781,0.11329 -1.00781,0.11329"
         style="fill:none;stroke:#000000;stroke-width:0.80000001;stroke-linecap:round;stroke-linejoin:round;stroke-miterlimit:10;stroke-opacity:1"
         inkscape:connector-curvature="0" />
      <path
         id="path4163"
         transform="matrix(1,0,0,-1,-210.718,751.914)"
         d="m 244.88987,742.87103 c 0,0 0,0 -0.0312,-0.0391 -0.0273,-0.0352 -0.0859,-0.10938 -0.13671,-0.17969 -0.0547,-0.0703 -0.10157,-0.13281 -0.14844,-0.19922 -0.0508,-0.0625 -0.10156,-0.1289 -0.15235,-0.19922 -0.0547,-0.0703 -0.10937,-0.14453 -0.16406,-0.22265 -0.0547,-0.0742 -0.10547,-0.15235 -0.15625,-0.22657 -0.0469,-0.0742 -0.0937,-0.14843 -0.13672,-0.22656 -0.0469,-0.0742 -0.0898,-0.15625 -0.125,-0.22656 -0.0312,-0.0664 -0.0547,-0.11719 -0.082,-0.17578 -0.0273,-0.0586 -0.0547,-0.125 -0.0742,-0.21485 -0.0234,-0.0859 -0.0351,-0.19531 -0.0312,-0.28515 0.004,-0.0898 0.0274,-0.16016 0.0547,-0.21875 0.0273,-0.0547 0.0547,-0.0977 0.0937,-0.14453 0.0391,-0.0469 0.082,-0.0977 0.10547,-0.125 0.0234,-0.0274 0.0234,-0.0274 0.0234,-0.0274 0,0 0,0 0,0"
         style="fill:none;stroke:#7d7d7d;stroke-width:0.40000001;stroke-linecap:butt;stroke-linejoin:round;stroke-miterlimit:10;stroke-opacity:1"
         inkscape:connector-curvature="0" />
      <path
         id="path4165"
         transform="matrix(1,0,0,-1,-210.718,751.914)"
         d="m 243.74534,747.05462 c 0,0 0,0 -0.17578,0.0156 -0.17187,0.0195 -0.52344,0.0586 -0.79297,0.0977 -0.27343,0.0352 -0.46484,0.0703 -0.63672,0.11328 -0.16796,0.0391 -0.3164,0.0859 -0.47265,0.14062 -0.15625,0.0547 -0.32031,0.11328 -0.41016,0.23047 -0.0898,0.11719 -0.10547,0.28906 -0.10156,0.41797 0,0.125 0.0195,0.20703 0.0703,0.31641 0.0547,0.10546 0.14063,0.24218 0.1836,0.30859 0.043,0.0664 0.043,0.0664 0.043,0.0664"
         style="fill:none;stroke:#7d7d7d;stroke-width:0.40000001;stroke-linecap:butt;stroke-linejoin:round;stroke-miterlimit:10;stroke-opacity:1"
         inkscape:connector-curvature="0" />
      <path
         id="path4167"
         transform="matrix(1,0,0,-1,-210.718,751.914)"
         d="m 249.38987,747.60541 c -0.20312,-0.3086 0.0195,-0.91797 0.3711,-1.01172 0.34765,-0.0937 0.82031,0.32812 1.02344,0.63281 0.20312,0.30859 0.13281,0.50781 -0.21485,0.60156 -0.35156,0.0937 -0.98047,0.082 -1.17969,-0.22265 z"
         style="fill:#c27f82;fill-opacity:1;fill-rule:evenodd;stroke:#c27f82;stroke-width:0.40000001;stroke-linecap:butt;stroke-linejoin:round;stroke-miterlimit:10;stroke-opacity:1"
         inkscape:connector-curvature="0" />
    </g>
  </g>
</svg>
